<?xml version="1.0" standalone="no"?>
<!DOCTYPE svg PUBLIC "-//W3C//DTD SVG 1.1//EN" "http://www.w3.org/Graphics/SVG/1.1/DTD/svg11.dtd" >
<svg xmlns="http://www.w3.org/2000/svg">
<defs>
  <font id="Watfurd" horiz-adv-x="256">
    <font-face font-family="Watfurd"
      units-per-em="256" ascent="256"
      descent="0" />
    <missing-glyph horiz-adv-x="0" />
    <glyph glyph-name="zoom"
      unicode="&#xEA02;"
      horiz-adv-x="256" d="M95.5 239.386C57.99 233.687 29.819 209.272 19.478 173.5C4.699 122.383 39.304 68.517 92.427 59.947C102.85 58.266 121.416 59.237 130.883 61.958C139.95 64.565 152.736 70.834 159.747 76.111C162.633 78.283 165.558 80.276 166.247 80.539C166.942 80.805 182.416 66.096 200.976 47.527L234.453 14.036L238.247 17.742L242.042 21.447L208.315 55.185L174.587 88.924L177.799 93.212C185.5 103.493 192.249 117.429 195.13 129C196.014 132.546 196.476 140.006 196.433 150C196.374 163.873 196.084 166.424 193.674 174.297C188.798 190.227 181.404 202.571 169.939 213.923C153.355 230.343 133.916 238.697 110.527 239.453C103.912 239.667 97.15 239.637 95.5 239.386M128.821 226.069C156.78 217.991 177.099 196.459 184.565 167C186.728 158.464 186.762 140.736 184.632 131.759C178.084 104.156 158.023 82.138 131.6 73.553C91.185 60.42 47.368 81.233 32.147 120.791C28.333 130.706 26.996 138.17 27.017 149.434C27.061 172.183 35.809 192.263 52.388 207.667C63.729 218.205 74.59 223.868 90.5 227.54C99.27 229.565 119.396 228.792 128.821 226.069" />
    <glyph glyph-name="zoom-1"
      unicode="&#x7A;&#x6F;&#x6F;&#x6D;"
      horiz-adv-x="256" d="M95.5 239.386C57.99 233.687 29.819 209.272 19.478 173.5C4.699 122.383 39.304 68.517 92.427 59.947C102.85 58.266 121.416 59.237 130.883 61.958C139.95 64.565 152.736 70.834 159.747 76.111C162.633 78.283 165.558 80.276 166.247 80.539C166.942 80.805 182.416 66.096 200.976 47.527L234.453 14.036L238.247 17.742L242.042 21.447L208.315 55.185L174.587 88.924L177.799 93.212C185.5 103.493 192.249 117.429 195.13 129C196.014 132.546 196.476 140.006 196.433 150C196.374 163.873 196.084 166.424 193.674 174.297C188.798 190.227 181.404 202.571 169.939 213.923C153.355 230.343 133.916 238.697 110.527 239.453C103.912 239.667 97.15 239.637 95.5 239.386M128.821 226.069C156.78 217.991 177.099 196.459 184.565 167C186.728 158.464 186.762 140.736 184.632 131.759C178.084 104.156 158.023 82.138 131.6 73.553C91.185 60.42 47.368 81.233 32.147 120.791C28.333 130.706 26.996 138.17 27.017 149.434C27.061 172.183 35.809 192.263 52.388 207.667C63.729 218.205 74.59 223.868 90.5 227.54C99.27 229.565 119.396 228.792 128.821 226.069" />
    <glyph glyph-name="sort-tool"
      unicode="&#xEA03;"
      horiz-adv-x="256" d="M5 224L5 219L128 219L251 219L251 224L251 229L128 229L5 229L5 224M37 160L37 155L128 155L219 155L219 160L219 165L128 165L37 165L37 160M69 96L69 91L128 91L187 91L187 96L187 101L128 101L69 101L69 96M101 32L101 27L128 27L155 27L155 32L155 37L128 37L101 37L101 32" />
    <glyph glyph-name="sort-tool-1"
      unicode="&#x73;&#x6F;&#x72;&#x74;&#x5F;&#x74;&#x6F;&#x6F;&#x6C;"
      horiz-adv-x="256" d="M5 224L5 219L128 219L251 219L251 224L251 229L128 229L5 229L5 224M37 160L37 155L128 155L219 155L219 160L219 165L128 165L37 165L37 160M69 96L69 91L128 91L187 91L187 96L187 101L128 101L69 101L69 96M101 32L101 27L128 27L155 27L155 32L155 37L128 37L101 37L101 32" />
    <glyph glyph-name="hide"
      unicode="&#xEA04;"
      horiz-adv-x="256" d="M211.324 218.83L188.193 195.698L179.346 200.245C152.791 213.896 122.67 216.612 95 207.852C84.756 204.608 67.363 195.624 57.058 188.253C40.87 176.675 13.637 147.868 7.309 135.63C5.333 131.81 5.333 124.19 7.309 120.37C12.963 109.435 37.302 83.005 51.819 72.034L59.052 66.568L36.506 44.006L13.96 21.444L17.752 17.742L21.543 14.04L131.795 124.295L242.046 234.549L238.251 238.255L234.456 241.961L211.324 218.83M145.5 200.897C152.779 199.694 162.427 196.626 170.5 192.946C181.302 188.022 181.277 188.729 171.013 178.513C162.397 169.937 161.884 169.593 159.743 170.963C148.556 178.123 139.456 181 128 181C113.206 181 100.759 175.759 90 165C79.944 154.944 75 142.749 75 128C75 116.544 77.877 107.445 85.037 96.256C86.409 94.113 86.051 93.588 77.006 84.506C71.8 79.278 67.121 75 66.609 75C64.535 75 50.578 86.52 40.926 96.199C30.023 107.131 16 124.966 16 127.9C16 132.188 33.459 153.691 47.101 166.204C59.686 177.747 70.636 185.386 83.5 191.593C104.942 201.94 122.89 204.633 145.5 200.897M208.155 174.66C206.42 172.87 205 171.188 205 170.923C205 170.657 209.44 165.848 214.868 160.236C224.013 150.778 235.61 136.942 238.894 131.569C241.045 128.05 239.735 125.175 230.843 113.892C214.157 92.719 192.397 74.302 172.5 64.514C147.387 52.159 124.183 50.27 97.775 58.429C92.642 60.015 92.617 60.001 90.541 54.115L89.131 50.12L95.33 48.057C110.654 42.957 129.647 41.621 145.972 44.494C177.979 50.126 211.203 72.326 238.231 106.139C248.689 119.221 250.231 122.029 250.231 127.993C250.231 133.709 248.085 137.827 239.61 148.374C232.015 157.826 217.495 173.511 214.106 175.925L211.31 177.915L208.155 174.66M134.855 169.954C140.668 169.01 152.13 164.216 153.371 162.21C153.654 161.75 140.45 147.943 124.026 131.526L94.166 101.679L92.075 105.089C87.636 112.33 85.796 119.105 85.853 128C85.934 140.919 89.35 149.254 98.18 158.085C103.91 163.815 113.162 168.69 120.715 169.96C127.489 171.099 127.797 171.099 134.855 169.954M173.25 143.834C168.538 142.779 168.61 142.995 170.029 134.25C172.069 121.684 167.49 107.743 158.186 98.191C149.192 88.958 134.592 84.025 122.24 86.048C113.395 87.497 113.359 87.484 112.119 82.557C111.503 80.114 111 77.901 111 77.64C111 76.622 121.447 75 128 75C137.176 75 144.141 76.56 151.934 80.362C169.14 88.755 180.914 107.542 180.974 126.701C181 134.897 179.426 145.095 178.167 144.893C177.8 144.834 175.588 144.358 173.25 143.834" />
    <glyph glyph-name="hide-1"
      unicode="&#x68;&#x69;&#x64;&#x65;"
      horiz-adv-x="256" d="M211.324 218.83L188.193 195.698L179.346 200.245C152.791 213.896 122.67 216.612 95 207.852C84.756 204.608 67.363 195.624 57.058 188.253C40.87 176.675 13.637 147.868 7.309 135.63C5.333 131.81 5.333 124.19 7.309 120.37C12.963 109.435 37.302 83.005 51.819 72.034L59.052 66.568L36.506 44.006L13.96 21.444L17.752 17.742L21.543 14.04L131.795 124.295L242.046 234.549L238.251 238.255L234.456 241.961L211.324 218.83M145.5 200.897C152.779 199.694 162.427 196.626 170.5 192.946C181.302 188.022 181.277 188.729 171.013 178.513C162.397 169.937 161.884 169.593 159.743 170.963C148.556 178.123 139.456 181 128 181C113.206 181 100.759 175.759 90 165C79.944 154.944 75 142.749 75 128C75 116.544 77.877 107.445 85.037 96.256C86.409 94.113 86.051 93.588 77.006 84.506C71.8 79.278 67.121 75 66.609 75C64.535 75 50.578 86.52 40.926 96.199C30.023 107.131 16 124.966 16 127.9C16 132.188 33.459 153.691 47.101 166.204C59.686 177.747 70.636 185.386 83.5 191.593C104.942 201.94 122.89 204.633 145.5 200.897M208.155 174.66C206.42 172.87 205 171.188 205 170.923C205 170.657 209.44 165.848 214.868 160.236C224.013 150.778 235.61 136.942 238.894 131.569C241.045 128.05 239.735 125.175 230.843 113.892C214.157 92.719 192.397 74.302 172.5 64.514C147.387 52.159 124.183 50.27 97.775 58.429C92.642 60.015 92.617 60.001 90.541 54.115L89.131 50.12L95.33 48.057C110.654 42.957 129.647 41.621 145.972 44.494C177.979 50.126 211.203 72.326 238.231 106.139C248.689 119.221 250.231 122.029 250.231 127.993C250.231 133.709 248.085 137.827 239.61 148.374C232.015 157.826 217.495 173.511 214.106 175.925L211.31 177.915L208.155 174.66M134.855 169.954C140.668 169.01 152.13 164.216 153.371 162.21C153.654 161.75 140.45 147.943 124.026 131.526L94.166 101.679L92.075 105.089C87.636 112.33 85.796 119.105 85.853 128C85.934 140.919 89.35 149.254 98.18 158.085C103.91 163.815 113.162 168.69 120.715 169.96C127.489 171.099 127.797 171.099 134.855 169.954M173.25 143.834C168.538 142.779 168.61 142.995 170.029 134.25C172.069 121.684 167.49 107.743 158.186 98.191C149.192 88.958 134.592 84.025 122.24 86.048C113.395 87.497 113.359 87.484 112.119 82.557C111.503 80.114 111 77.901 111 77.64C111 76.622 121.447 75 128 75C137.176 75 144.141 76.56 151.934 80.362C169.14 88.755 180.914 107.542 180.974 126.701C181 134.897 179.426 145.095 178.167 144.893C177.8 144.834 175.588 144.358 173.25 143.834" />
    <glyph glyph-name="view"
      unicode="&#xEA05;"
      horiz-adv-x="256" d="M107.5 211.049C90.099 207.371 73.162 199.721 57.008 188.244C41.023 176.887 16.429 151.011 7.932 136.609C4.867 131.415 5.019 124.333 8.314 118.785C16.183 105.533 38.407 81.961 54.019 70.309C78.147 52.3 98.844 44.249 123.5 43.281C149.663 42.254 172.316 49.531 197.247 66.973C212.662 77.758 242.667 109.048 248.957 120.9C251.119 124.972 250.539 132.411 247.686 137.215C239.995 150.169 217.79 173.823 202.771 185.061C185.777 197.779 170.961 205.285 154.134 209.704C140.819 213.2 120.453 213.787 107.5 211.049M137.5 201.968C161.589 199.249 182.95 188.806 206.507 168.232C219.942 156.497 240 132.455 240 128.086C240 125.053 225.699 106.703 214.979 95.981C196.51 77.509 172.397 62.088 154.169 57.092C117.632 47.078 81.932 58.102 46.6 90.311C33.105 102.613 16 123.867 16 128.334C16 134.583 46.76 167.949 63.528 179.888C79.881 191.531 100.457 200.046 116.874 201.963C126.488 203.086 127.589 203.086 137.5 201.968M114.112 179.419C102.255 176.231 90.239 167.587 83.455 157.366C74.127 143.313 72.228 123.19 78.748 107.5C83.343 96.442 93.434 85.569 103.858 80.446C112.694 76.102 117.581 75 128 75C142.763 75 153.288 79.064 163.89 88.86C181.605 105.225 186.076 130.423 175.242 152.829C169.653 164.389 155.002 175.941 141.458 179.469C134.174 181.366 121.264 181.343 114.112 179.419M134.855 169.954C149.631 167.556 163.851 155.665 168.284 142C176.427 116.897 160.38 90.116 134.75 86.036C106.247 81.499 82 105.752 86.1 134.699C88.859 154.184 106 169.345 127 170.876C127.825 170.936 131.36 170.521 134.855 169.954" />
    <glyph glyph-name="view-1"
      unicode="&#x76;&#x69;&#x65;&#x77;"
      horiz-adv-x="256" d="M107.5 211.049C90.099 207.371 73.162 199.721 57.008 188.244C41.023 176.887 16.429 151.011 7.932 136.609C4.867 131.415 5.019 124.333 8.314 118.785C16.183 105.533 38.407 81.961 54.019 70.309C78.147 52.3 98.844 44.249 123.5 43.281C149.663 42.254 172.316 49.531 197.247 66.973C212.662 77.758 242.667 109.048 248.957 120.9C251.119 124.972 250.539 132.411 247.686 137.215C239.995 150.169 217.79 173.823 202.771 185.061C185.777 197.779 170.961 205.285 154.134 209.704C140.819 213.2 120.453 213.787 107.5 211.049M137.5 201.968C161.589 199.249 182.95 188.806 206.507 168.232C219.942 156.497 240 132.455 240 128.086C240 125.053 225.699 106.703 214.979 95.981C196.51 77.509 172.397 62.088 154.169 57.092C117.632 47.078 81.932 58.102 46.6 90.311C33.105 102.613 16 123.867 16 128.334C16 134.583 46.76 167.949 63.528 179.888C79.881 191.531 100.457 200.046 116.874 201.963C126.488 203.086 127.589 203.086 137.5 201.968M114.112 179.419C102.255 176.231 90.239 167.587 83.455 157.366C74.127 143.313 72.228 123.19 78.748 107.5C83.343 96.442 93.434 85.569 103.858 80.446C112.694 76.102 117.581 75 128 75C142.763 75 153.288 79.064 163.89 88.86C181.605 105.225 186.076 130.423 175.242 152.829C169.653 164.389 155.002 175.941 141.458 179.469C134.174 181.366 121.264 181.343 114.112 179.419M134.855 169.954C149.631 167.556 163.851 155.665 168.284 142C176.427 116.897 160.38 90.116 134.75 86.036C106.247 81.499 82 105.752 86.1 134.699C88.859 154.184 106 169.345 127 170.876C127.825 170.936 131.36 170.521 134.855 169.954" />
    <glyph glyph-name="zoom-out"
      unicode="&#xEA06;"
      horiz-adv-x="256" d="M95.5 239.386C57.99 233.687 29.819 209.272 19.478 173.5C4.699 122.383 39.304 68.517 92.427 59.947C102.85 58.266 121.416 59.237 130.883 61.958C139.95 64.565 152.736 70.834 159.747 76.111C162.633 78.283 165.558 80.276 166.247 80.539C166.942 80.805 182.416 66.096 200.976 47.527L234.453 14.036L238.247 17.742L242.042 21.447L208.315 55.185L174.587 88.924L177.799 93.212C185.5 103.493 192.249 117.429 195.13 129C196.014 132.546 196.476 140.006 196.433 150C196.374 163.873 196.084 166.424 193.674 174.297C188.798 190.227 181.404 202.571 169.939 213.923C153.355 230.343 133.916 238.697 110.527 239.453C103.912 239.667 97.15 239.637 95.5 239.386M128.821 226.069C156.78 217.991 177.099 196.459 184.565 167C186.728 158.464 186.762 140.736 184.632 131.759C178.084 104.156 158.023 82.138 131.6 73.553C91.185 60.42 47.368 81.233 32.147 120.791C28.333 130.706 26.996 138.17 27.017 149.434C27.061 172.183 35.809 192.263 52.388 207.667C63.729 218.205 74.59 223.868 90.5 227.54C99.27 229.565 119.396 228.792 128.821 226.069M69 149.5L69 144L106.5 144L144 144L144 149.5L144 155L106.5 155L69 155L69 149.5" />
    <glyph glyph-name="zoom-out-1"
      unicode="&#x7A;&#x6F;&#x6F;&#x6D;&#x5F;&#x6F;&#x75;&#x74;"
      horiz-adv-x="256" d="M95.5 239.386C57.99 233.687 29.819 209.272 19.478 173.5C4.699 122.383 39.304 68.517 92.427 59.947C102.85 58.266 121.416 59.237 130.883 61.958C139.95 64.565 152.736 70.834 159.747 76.111C162.633 78.283 165.558 80.276 166.247 80.539C166.942 80.805 182.416 66.096 200.976 47.527L234.453 14.036L238.247 17.742L242.042 21.447L208.315 55.185L174.587 88.924L177.799 93.212C185.5 103.493 192.249 117.429 195.13 129C196.014 132.546 196.476 140.006 196.433 150C196.374 163.873 196.084 166.424 193.674 174.297C188.798 190.227 181.404 202.571 169.939 213.923C153.355 230.343 133.916 238.697 110.527 239.453C103.912 239.667 97.15 239.637 95.5 239.386M128.821 226.069C156.78 217.991 177.099 196.459 184.565 167C186.728 158.464 186.762 140.736 184.632 131.759C178.084 104.156 158.023 82.138 131.6 73.553C91.185 60.42 47.368 81.233 32.147 120.791C28.333 130.706 26.996 138.17 27.017 149.434C27.061 172.183 35.809 192.263 52.388 207.667C63.729 218.205 74.59 223.868 90.5 227.54C99.27 229.565 119.396 228.792 128.821 226.069M69 149.5L69 144L106.5 144L144 144L144 149.5L144 155L106.5 155L69 155L69 149.5" />
    <glyph glyph-name="zoom-in"
      unicode="&#xEA07;"
      horiz-adv-x="256" d="M95.5 239.386C57.99 233.687 29.819 209.272 19.478 173.5C4.699 122.383 39.304 68.517 92.427 59.947C102.85 58.266 121.416 59.237 130.883 61.958C139.95 64.565 152.736 70.834 159.747 76.111C162.633 78.283 165.558 80.276 166.247 80.539C166.942 80.805 182.416 66.096 200.976 47.527L234.453 14.036L238.247 17.742L242.042 21.447L208.315 55.185L174.587 88.924L177.799 93.212C185.5 103.493 192.249 117.429 195.13 129C196.014 132.546 196.476 140.006 196.433 150C196.374 163.873 196.084 166.424 193.674 174.297C188.798 190.227 181.404 202.571 169.939 213.923C153.355 230.343 133.916 238.697 110.527 239.453C103.912 239.667 97.15 239.637 95.5 239.386M128.821 226.069C156.78 217.991 177.099 196.459 184.565 167C186.728 158.464 186.762 140.736 184.632 131.759C178.084 104.156 158.023 82.138 131.6 73.553C91.185 60.42 47.368 81.233 32.147 120.791C28.333 130.706 26.996 138.17 27.017 149.434C27.061 172.183 35.809 192.263 52.388 207.667C63.729 218.205 74.59 223.868 90.5 227.54C99.27 229.565 119.396 228.792 128.821 226.069M101.667 186.333C101.3 185.967 101 178.767 101 170.333L101 155L85 155L69 155L69 149.5L69 144L85 144L101 144L101 128L101 112L106.5 112L112 112L112 128L112 144L128 144L144 144L144 149.5L144 155L128 155L112 155L112 171L112 187L107.167 187C104.508 187 102.033 186.7 101.667 186.333" />
    <glyph glyph-name="zoom-in-1"
      unicode="&#x7A;&#x6F;&#x6F;&#x6D;&#x5F;&#x69;&#x6E;"
      horiz-adv-x="256" d="M95.5 239.386C57.99 233.687 29.819 209.272 19.478 173.5C4.699 122.383 39.304 68.517 92.427 59.947C102.85 58.266 121.416 59.237 130.883 61.958C139.95 64.565 152.736 70.834 159.747 76.111C162.633 78.283 165.558 80.276 166.247 80.539C166.942 80.805 182.416 66.096 200.976 47.527L234.453 14.036L238.247 17.742L242.042 21.447L208.315 55.185L174.587 88.924L177.799 93.212C185.5 103.493 192.249 117.429 195.13 129C196.014 132.546 196.476 140.006 196.433 150C196.374 163.873 196.084 166.424 193.674 174.297C188.798 190.227 181.404 202.571 169.939 213.923C153.355 230.343 133.916 238.697 110.527 239.453C103.912 239.667 97.15 239.637 95.5 239.386M128.821 226.069C156.78 217.991 177.099 196.459 184.565 167C186.728 158.464 186.762 140.736 184.632 131.759C178.084 104.156 158.023 82.138 131.6 73.553C91.185 60.42 47.368 81.233 32.147 120.791C28.333 130.706 26.996 138.17 27.017 149.434C27.061 172.183 35.809 192.263 52.388 207.667C63.729 218.205 74.59 223.868 90.5 227.54C99.27 229.565 119.396 228.792 128.821 226.069M101.667 186.333C101.3 185.967 101 178.767 101 170.333L101 155L85 155L69 155L69 149.5L69 144L85 144L101 144L101 128L101 112L106.5 112L112 112L112 128L112 144L128 144L144 144L144 149.5L144 155L128 155L112 155L112 171L112 187L107.167 187C104.508 187 102.033 186.7 101.667 186.333" />
    <glyph glyph-name="bin"
      unicode="&#xEA0A;"
      horiz-adv-x="256" d="M85.677 250.344C85.305 249.971 85 240.292 85 228.833L85 208L48 208L11 208L11 202.5L11 197L128 197L245 197L245 202.5L245 208L208.02 208L171.04 208L170.77 229.25L170.5 250.5L128.427 250.761C105.287 250.904 86.05 250.717 85.677 250.344M160 224L160 208L128 208L96 208L96 224L96 240L128 240L160 240L160 224M43.226 99.75C43.48 29.037 43.628 23.265 45.267 20.266C47.918 15.417 53.755 10.008 58.911 7.623C63.438 5.528 64.365 5.5 128 5.5C191.635 5.5 192.562 5.528 197.089 7.623C202.245 10.008 208.082 15.417 210.733 20.266C212.372 23.265 212.52 29.037 212.774 99.75L213.048 176L208.049 176L203.049 176L202.775 101.75L202.5 27.5L200.299 23.962C199.089 22.016 196.328 19.428 194.163 18.212L190.228 16L127.952 16L65.676 16L61.343 18.539C53.011 23.422 53.535 18.053 53.225 101.75L52.951 176L47.951 176L42.952 176L43.226 99.75M85 98.5L85 53L90.5 53L96 53L96 98.5L96 144L90.5 144L85 144L85 98.5M123 98.5L123 53L128 53L133 53L133 98.5L133 144L128 144L123 144L123 98.5M160 98.448L160 52.895L165.25 53.198L170.5 53.5L170.76 98.75L171.02 144L165.51 144L160 144L160 98.448" />
    <glyph glyph-name="bin-1"
      unicode="&#x62;&#x69;&#x6E;"
      horiz-adv-x="256" d="M85.677 250.344C85.305 249.971 85 240.292 85 228.833L85 208L48 208L11 208L11 202.5L11 197L128 197L245 197L245 202.5L245 208L208.02 208L171.04 208L170.77 229.25L170.5 250.5L128.427 250.761C105.287 250.904 86.05 250.717 85.677 250.344M160 224L160 208L128 208L96 208L96 224L96 240L128 240L160 240L160 224M43.226 99.75C43.48 29.037 43.628 23.265 45.267 20.266C47.918 15.417 53.755 10.008 58.911 7.623C63.438 5.528 64.365 5.5 128 5.5C191.635 5.5 192.562 5.528 197.089 7.623C202.245 10.008 208.082 15.417 210.733 20.266C212.372 23.265 212.52 29.037 212.774 99.75L213.048 176L208.049 176L203.049 176L202.775 101.75L202.5 27.5L200.299 23.962C199.089 22.016 196.328 19.428 194.163 18.212L190.228 16L127.952 16L65.676 16L61.343 18.539C53.011 23.422 53.535 18.053 53.225 101.75L52.951 176L47.951 176L42.952 176L43.226 99.75M85 98.5L85 53L90.5 53L96 53L96 98.5L96 144L90.5 144L85 144L85 98.5M123 98.5L123 53L128 53L133 53L133 98.5L133 144L128 144L123 144L123 98.5M160 98.448L160 52.895L165.25 53.198L170.5 53.5L170.76 98.75L171.02 144L165.51 144L160 144L160 98.448" />
    <glyph glyph-name="e-remove"
      unicode="&#xEA0B;"
      horiz-adv-x="256" d="M49.733 206.267L45.988 202.522L83.239 165.261L120.49 128L83.239 90.739L45.988 53.478L49.733 49.733L53.478 45.988L90.739 83.239L128 120.49L165.261 83.239L202.522 45.988L206.267 49.733L210.012 53.478L172.761 90.739L135.51 128L172.761 165.261L210.012 202.522L206.267 206.267L202.522 210.012L165.261 172.761L128 135.51L90.739 172.761L53.478 210.012L49.733 206.267" />
    <glyph glyph-name="e-remove-1"
      unicode="&#x65;&#x5F;&#x72;&#x65;&#x6D;&#x6F;&#x76;&#x65;"
      horiz-adv-x="256" d="M49.733 206.267L45.988 202.522L83.239 165.261L120.49 128L83.239 90.739L45.988 53.478L49.733 49.733L53.478 45.988L90.739 83.239L128 120.49L165.261 83.239L202.522 45.988L206.267 49.733L210.012 53.478L172.761 90.739L135.51 128L172.761 165.261L210.012 202.522L206.267 206.267L202.522 210.012L165.261 172.761L128 135.51L90.739 172.761L53.478 210.012L49.733 206.267" />
    <glyph glyph-name="shopping-bag"
      unicode="&#xEA0C;"
      horiz-adv-x="256" d="M120.233 249.889C108.44 247.925 95.419 238.064 89.774 226.823C86.522 220.347 85.047 211.172 85.02 197.25L85 187L64.182 187L43.365 187L33.576 108.623L23.787 30.246L25.444 24.546C27.436 17.693 32.751 11.502 39.683 7.961L44.5 5.5L125 5.193C218.587 4.837 214.633 4.502 223.676 13.545C227.689 17.559 229.247 20.044 230.541 24.491L232.213 30.246L222.424 108.623L212.635 187L191.963 187L171.291 187L170.694 201.75C170.366 209.862 169.5 218.3 168.771 220.5C163.679 235.864 150.35 247.439 134.855 249.954C127.734 251.109 127.555 251.108 120.233 249.889M141.375 237.061C147.361 234.163 154.164 227.345 157.133 221.27C159.18 217.08 159.509 214.707 159.841 201.75L160.218 187L128.109 187L96 187L96.024 199.25C96.038 205.987 96.514 213.525 97.084 216C99.274 225.527 108.567 235.432 118.296 238.612C124.404 240.608 135.601 239.856 141.375 237.061M85 160L85 144L90.5 144L96 144L96 160L96 176L128 176L160 176L160 160L160 144L165.5 144L171 144L171 160L171 176L186.981 176C202.741 176 202.969 175.969 203.454 173.75C205.406 164.831 221.123 31.472 220.571 28.524C219.68 23.778 214.717 18.293 210.168 17.03C207.82 16.378 177.959 16.009 127.218 16.006C62.51 16.001 47.336 16.251 44.671 17.364C40.392 19.152 36.245 24.178 35.42 28.575C34.876 31.474 50.624 164.965 52.546 173.75C53.031 175.969 53.259 176 69.019 176L85 176L85 160" />
    <glyph glyph-name="shopping-bag-1"
      unicode="&#x73;&#x68;&#x6F;&#x70;&#x70;&#x69;&#x6E;&#x67;&#x5F;&#x62;&#x61;&#x67;"
      horiz-adv-x="256" d="M120.233 249.889C108.44 247.925 95.419 238.064 89.774 226.823C86.522 220.347 85.047 211.172 85.02 197.25L85 187L64.182 187L43.365 187L33.576 108.623L23.787 30.246L25.444 24.546C27.436 17.693 32.751 11.502 39.683 7.961L44.5 5.5L125 5.193C218.587 4.837 214.633 4.502 223.676 13.545C227.689 17.559 229.247 20.044 230.541 24.491L232.213 30.246L222.424 108.623L212.635 187L191.963 187L171.291 187L170.694 201.75C170.366 209.862 169.5 218.3 168.771 220.5C163.679 235.864 150.35 247.439 134.855 249.954C127.734 251.109 127.555 251.108 120.233 249.889M141.375 237.061C147.361 234.163 154.164 227.345 157.133 221.27C159.18 217.08 159.509 214.707 159.841 201.75L160.218 187L128.109 187L96 187L96.024 199.25C96.038 205.987 96.514 213.525 97.084 216C99.274 225.527 108.567 235.432 118.296 238.612C124.404 240.608 135.601 239.856 141.375 237.061M85 160L85 144L90.5 144L96 144L96 160L96 176L128 176L160 176L160 160L160 144L165.5 144L171 144L171 160L171 176L186.981 176C202.741 176 202.969 175.969 203.454 173.75C205.406 164.831 221.123 31.472 220.571 28.524C219.68 23.778 214.717 18.293 210.168 17.03C207.82 16.378 177.959 16.009 127.218 16.006C62.51 16.001 47.336 16.251 44.671 17.364C40.392 19.152 36.245 24.178 35.42 28.575C34.876 31.474 50.624 164.965 52.546 173.75C53.031 175.969 53.259 176 69.019 176L85 176L85 160" />
    <glyph glyph-name="globe"
      unicode="&#xEA19;"
      horiz-adv-x="256" d="M114.5 249.83C68.227 244.573 28.373 213.044 12.647 169.253C-4.227 122.261 9.627 68.791 47.15 36.083C67.144 18.655 89.68 9.008 117.287 6.06C155.706 1.957 197.437 19.366 222.441 49.928C262.358 98.719 259.206 169.45 215.135 213.855C194.382 234.765 169.464 246.699 139.789 249.94C128.857 251.133 125.863 251.12 114.5 249.83M123 215.5L123 192L104 192C89.458 192 85.004 192.293 85.015 193.25C85.047 195.832 92.946 212.149 97.424 218.885C99.982 222.734 104.3 227.883 107.02 230.328C111.823 234.647 119.214 238.998 121.75 238.999C122.715 239 123 233.634 123 215.5M143.173 234.874C148.886 231.226 154.772 224.956 159.69 217.279C163.503 211.326 170.957 195.468 170.985 193.25C170.996 192.293 166.542 192 152 192L133 192L133 215.608L133 239.217L135.75 238.538C137.262 238.164 140.603 236.515 143.173 234.874M92.491 230.42C86.915 223.115 81.256 212.827 77.013 202.281L73.078 192.5L55.039 192.227C45.118 192.078 37 192.346 37 192.825C37 193.303 39.845 197.026 43.323 201.097C55.959 215.89 72.731 227.275 91.5 233.799C96.168 235.422 96.207 235.288 92.491 230.42M166.093 233.099C179.049 228.542 187.859 223.533 199.326 214.203C205.842 208.901 219 194.589 219 192.803C219 192.336 210.882 192.078 200.961 192.227L182.922 192.5L178.979 202.302C174.631 213.109 169.875 221.752 163.874 229.75C161.708 232.638 160.104 235 160.311 235C160.518 235 163.12 234.144 166.093 233.099M69.617 179.25C68.061 173.984 65.884 159.219 64.857 146.959L63.687 133L39.75 133L15.812 133L16.462 138.25C18.178 152.13 21.069 162.759 26.252 174.25L29.296 181L49.715 181C68.693 181 70.098 180.876 69.617 179.25M122.768 157.25L122.5 133.5L98.596 133.232L74.692 132.963L75.331 143.732C75.97 154.505 78.191 170.195 80.075 177.25L81.077 181L102.057 181L123.036 181L122.768 157.25M175.925 177.25C177.764 170.364 179.982 154.616 180.646 143.732L181.303 132.963L157.401 133.232L133.5 133.5L133.232 157.25L132.964 181L153.943 181L174.923 181L175.925 177.25M229.799 174.25C234.676 163.611 240 142.569 240 133.928C240 133.383 230.146 133 216.156 133L192.313 133L191.143 146.959C190.116 159.219 187.939 173.984 186.383 179.25C185.902 180.876 187.307 181 206.285 181L226.704 181L229.799 174.25M64.857 109.041C65.884 96.781 68.061 82.016 69.617 76.75C70.098 75.124 68.693 75 49.715 75L29.296 75L26.227 81.75C22.267 90.46 19.31 100.281 17.47 110.835C15.092 124.471 12.386 123 39.844 123L63.687 123L64.857 109.041M122.768 98.75L123.036 75L102.057 75L81.077 75L80.075 78.75C78.191 85.805 75.97 101.495 75.331 112.268L74.692 123.037L98.596 122.768L122.5 122.5L122.768 98.75M180.668 112.25C180.03 101.492 177.808 85.801 175.925 78.75L174.923 75L153.961 75L133 75L133 98.333C133 111.167 133.3 121.967 133.667 122.333C134.033 122.7 144.902 123 157.819 123L181.306 123L180.668 112.25M240 121.131C240 112.983 234.708 92.604 229.773 81.75L226.704 75L206.285 75C187.307 75 185.902 75.124 186.383 76.75C187.939 82.016 190.116 96.781 191.143 109.041L192.313 123L216.156 123C238.776 123 240 122.904 240 121.131M77.021 53.698C81.393 42.832 86.128 34.245 92.235 26.106L96.282 20.712L93.391 21.393C88.599 22.522 72.249 30.707 64.696 35.759C57.257 40.735 44.688 52.524 39.094 59.772L35.796 64.045L54.437 63.772L73.078 63.5L77.021 53.698M123 40.392L123 16.783L120.25 17.462C113.02 19.248 103.196 27.972 96.31 38.721C92.497 44.674 85.043 60.532 85.015 62.75C85.004 63.707 89.458 64 104 64L123 64L123 40.392M170.543 61.25C169.067 55.223 159.777 38.118 154.516 31.74C148.827 24.844 140.687 18.644 135.75 17.449L133 16.783L133 40.392L133 64L152.108 64L171.217 64L170.543 61.25M219 63.199C219 61.75 207.29 48.593 201.841 43.919C191.146 34.746 171.917 23.721 162.609 21.425L159.718 20.712L163.765 26.106C170.91 35.628 177.544 48.545 182.326 62.25C182.878 63.829 184.695 64 200.969 64C210.886 64 219 63.64 219 63.199" />
    <glyph glyph-name="globe-1"
      unicode="&#x67;&#x6C;&#x6F;&#x62;&#x65;"
      horiz-adv-x="256" d="M114.5 249.83C68.227 244.573 28.373 213.044 12.647 169.253C-4.227 122.261 9.627 68.791 47.15 36.083C67.144 18.655 89.68 9.008 117.287 6.06C155.706 1.957 197.437 19.366 222.441 49.928C262.358 98.719 259.206 169.45 215.135 213.855C194.382 234.765 169.464 246.699 139.789 249.94C128.857 251.133 125.863 251.12 114.5 249.83M123 215.5L123 192L104 192C89.458 192 85.004 192.293 85.015 193.25C85.047 195.832 92.946 212.149 97.424 218.885C99.982 222.734 104.3 227.883 107.02 230.328C111.823 234.647 119.214 238.998 121.75 238.999C122.715 239 123 233.634 123 215.5M143.173 234.874C148.886 231.226 154.772 224.956 159.69 217.279C163.503 211.326 170.957 195.468 170.985 193.25C170.996 192.293 166.542 192 152 192L133 192L133 215.608L133 239.217L135.75 238.538C137.262 238.164 140.603 236.515 143.173 234.874M92.491 230.42C86.915 223.115 81.256 212.827 77.013 202.281L73.078 192.5L55.039 192.227C45.118 192.078 37 192.346 37 192.825C37 193.303 39.845 197.026 43.323 201.097C55.959 215.89 72.731 227.275 91.5 233.799C96.168 235.422 96.207 235.288 92.491 230.42M166.093 233.099C179.049 228.542 187.859 223.533 199.326 214.203C205.842 208.901 219 194.589 219 192.803C219 192.336 210.882 192.078 200.961 192.227L182.922 192.5L178.979 202.302C174.631 213.109 169.875 221.752 163.874 229.75C161.708 232.638 160.104 235 160.311 235C160.518 235 163.12 234.144 166.093 233.099M69.617 179.25C68.061 173.984 65.884 159.219 64.857 146.959L63.687 133L39.75 133L15.812 133L16.462 138.25C18.178 152.13 21.069 162.759 26.252 174.25L29.296 181L49.715 181C68.693 181 70.098 180.876 69.617 179.25M122.768 157.25L122.5 133.5L98.596 133.232L74.692 132.963L75.331 143.732C75.97 154.505 78.191 170.195 80.075 177.25L81.077 181L102.057 181L123.036 181L122.768 157.25M175.925 177.25C177.764 170.364 179.982 154.616 180.646 143.732L181.303 132.963L157.401 133.232L133.5 133.5L133.232 157.25L132.964 181L153.943 181L174.923 181L175.925 177.25M229.799 174.25C234.676 163.611 240 142.569 240 133.928C240 133.383 230.146 133 216.156 133L192.313 133L191.143 146.959C190.116 159.219 187.939 173.984 186.383 179.25C185.902 180.876 187.307 181 206.285 181L226.704 181L229.799 174.25M64.857 109.041C65.884 96.781 68.061 82.016 69.617 76.75C70.098 75.124 68.693 75 49.715 75L29.296 75L26.227 81.75C22.267 90.46 19.31 100.281 17.47 110.835C15.092 124.471 12.386 123 39.844 123L63.687 123L64.857 109.041M122.768 98.75L123.036 75L102.057 75L81.077 75L80.075 78.75C78.191 85.805 75.97 101.495 75.331 112.268L74.692 123.037L98.596 122.768L122.5 122.5L122.768 98.75M180.668 112.25C180.03 101.492 177.808 85.801 175.925 78.75L174.923 75L153.961 75L133 75L133 98.333C133 111.167 133.3 121.967 133.667 122.333C134.033 122.7 144.902 123 157.819 123L181.306 123L180.668 112.25M240 121.131C240 112.983 234.708 92.604 229.773 81.75L226.704 75L206.285 75C187.307 75 185.902 75.124 186.383 76.75C187.939 82.016 190.116 96.781 191.143 109.041L192.313 123L216.156 123C238.776 123 240 122.904 240 121.131M77.021 53.698C81.393 42.832 86.128 34.245 92.235 26.106L96.282 20.712L93.391 21.393C88.599 22.522 72.249 30.707 64.696 35.759C57.257 40.735 44.688 52.524 39.094 59.772L35.796 64.045L54.437 63.772L73.078 63.5L77.021 53.698M123 40.392L123 16.783L120.25 17.462C113.02 19.248 103.196 27.972 96.31 38.721C92.497 44.674 85.043 60.532 85.015 62.75C85.004 63.707 89.458 64 104 64L123 64L123 40.392M170.543 61.25C169.067 55.223 159.777 38.118 154.516 31.74C148.827 24.844 140.687 18.644 135.75 17.449L133 16.783L133 40.392L133 64L152.108 64L171.217 64L170.543 61.25M219 63.199C219 61.75 207.29 48.593 201.841 43.919C191.146 34.746 171.917 23.721 162.609 21.425L159.718 20.712L163.765 26.106C170.91 35.628 177.544 48.545 182.326 62.25C182.878 63.829 184.695 64 200.969 64C210.886 64 219 63.64 219 63.199" />
    <glyph glyph-name="tag-cut"
      unicode="&#xEA1A;"
      horiz-adv-x="256" d="M22.74 233.24L5 215.48L5 175.987L5 136.494L69.001 72.499L133.002 8.504L190.249 65.751L247.496 122.998L183.501 186.999L119.506 251L79.993 251L40.479 251L22.74 233.24M174.001 181.499L232.496 122.998L182.749 73.251L133.002 23.504L74.501 81.999L16 140.494L16 175.984L16 211.475L30.237 225.737L44.474 240L79.99 240L115.506 240L174.001 181.499M66.882 206.619C58.165 203.504 52.266 197.84 49.461 189.89C44.851 176.823 52.095 161.566 65.305 156.521C72.665 153.711 82.656 154.77 88.886 159.021C91.532 160.826 95.182 164.481 96.998 167.142C99.796 171.242 100.37 173.092 100.768 179.28C101.154 185.309 100.847 187.484 99.005 191.767C93.71 204.075 78.911 210.918 66.882 206.619M82.696 195.044C91.723 189.54 92.989 177.111 85.257 169.899C79.829 164.835 74.599 163.994 68.223 167.157C61.429 170.529 58.719 175.012 59.212 182.065C59.665 188.542 62.302 192.914 67.218 195.337C71.747 197.569 78.773 197.436 82.696 195.044" />
    <glyph glyph-name="tag-cut-1"
      unicode="&#x74;&#x61;&#x67;&#x5F;&#x63;&#x75;&#x74;"
      horiz-adv-x="256" d="M22.74 233.24L5 215.48L5 175.987L5 136.494L69.001 72.499L133.002 8.504L190.249 65.751L247.496 122.998L183.501 186.999L119.506 251L79.993 251L40.479 251L22.74 233.24M174.001 181.499L232.496 122.998L182.749 73.251L133.002 23.504L74.501 81.999L16 140.494L16 175.984L16 211.475L30.237 225.737L44.474 240L79.99 240L115.506 240L174.001 181.499M66.882 206.619C58.165 203.504 52.266 197.84 49.461 189.89C44.851 176.823 52.095 161.566 65.305 156.521C72.665 153.711 82.656 154.77 88.886 159.021C91.532 160.826 95.182 164.481 96.998 167.142C99.796 171.242 100.37 173.092 100.768 179.28C101.154 185.309 100.847 187.484 99.005 191.767C93.71 204.075 78.911 210.918 66.882 206.619M82.696 195.044C91.723 189.54 92.989 177.111 85.257 169.899C79.829 164.835 74.599 163.994 68.223 167.157C61.429 170.529 58.719 175.012 59.212 182.065C59.665 188.542 62.302 192.914 67.218 195.337C71.747 197.569 78.773 197.436 82.696 195.044" />
    <glyph glyph-name="map-pin"
      unicode="&#xEA1B;"
      horiz-adv-x="256" d="M118.575 249.94C105.662 247.778 95.018 242.122 85.293 232.253C70.648 217.389 65.78 195.49 72.627 175.265C78.585 157.663 98.616 128.501 120.891 105L128 97.5L135.109 105C158.763 129.956 177.906 158.347 183.992 177.5C190.001 196.406 184.692 218.06 170.524 232.438C156.346 246.826 137.634 253.131 118.575 249.94M137.114 239.001C140.076 238.452 145.69 236.438 149.589 234.526C171.668 223.699 181.36 198.956 172.408 176.269C166.76 161.956 149.391 136.257 134.572 120.285L127.877 113.07L121.341 120.285C105.731 137.516 89.657 161.214 84.003 175.333C76.609 193.799 80.322 212.347 94.135 225.944C105.277 236.912 121.614 241.875 137.114 239.001M119.112 211.34C117.248 210.392 114.229 208.078 112.403 206.197C103.557 197.089 105.622 181.473 116.661 174C119.802 171.873 121.495 171.5 128 171.5C134.505 171.5 136.198 171.873 139.339 174C141.371 175.375 144.263 178.262 145.766 180.415C148.166 183.851 148.5 185.265 148.5 191.988C148.5 198.506 148.128 200.196 146 203.337C141.882 209.415 136.543 212.369 129 212.742C124.314 212.974 121.555 212.582 119.112 211.34M227.5 203.759C216.5 200.979 207.367 198.601 207.205 198.474C207.043 198.347 207.434 196.164 208.074 193.622C208.866 190.475 209.758 189.006 210.869 189.018C211.766 189.027 218.69 190.536 226.256 192.369L240.013 195.704L239.756 121.164L239.5 46.625L200.5 36.789L161.5 26.954L128.762 37.605L96.024 48.256L56.006 38.249L15.987 28.242L16.244 102.815L16.5 177.388L32.5 181.341C41.3 183.515 48.633 185.398 48.795 185.525C48.957 185.653 48.566 187.836 47.926 190.378C46.991 194.091 46.344 194.991 44.631 194.955C43.459 194.93 34.175 192.792 24 190.205L5.5 185.5L5.244 100.25C5.072 42.651 5.321 15 6.012 15C6.574 15 26.857 19.96 51.086 26.021L95.137 37.043L127.517 26.38L159.898 15.717L205.199 27.108L250.5 38.5L250.756 123.75C250.998 204.505 250.919 208.995 249.256 208.907C248.29 208.855 238.5 206.539 227.5 203.759M133.64 200.827C137.998 198.694 139.693 191.533 137.022 186.541C136.301 185.193 134.18 183.364 132.308 182.476C121.798 177.489 112.426 191.153 120.689 199.416C124.256 202.983 128.328 203.427 133.64 200.827" />
    <glyph glyph-name="map-pin-1"
      unicode="&#x6D;&#x61;&#x70;&#x5F;&#x70;&#x69;&#x6E;"
      horiz-adv-x="256" d="M118.575 249.94C105.662 247.778 95.018 242.122 85.293 232.253C70.648 217.389 65.78 195.49 72.627 175.265C78.585 157.663 98.616 128.501 120.891 105L128 97.5L135.109 105C158.763 129.956 177.906 158.347 183.992 177.5C190.001 196.406 184.692 218.06 170.524 232.438C156.346 246.826 137.634 253.131 118.575 249.94M137.114 239.001C140.076 238.452 145.69 236.438 149.589 234.526C171.668 223.699 181.36 198.956 172.408 176.269C166.76 161.956 149.391 136.257 134.572 120.285L127.877 113.07L121.341 120.285C105.731 137.516 89.657 161.214 84.003 175.333C76.609 193.799 80.322 212.347 94.135 225.944C105.277 236.912 121.614 241.875 137.114 239.001M119.112 211.34C117.248 210.392 114.229 208.078 112.403 206.197C103.557 197.089 105.622 181.473 116.661 174C119.802 171.873 121.495 171.5 128 171.5C134.505 171.5 136.198 171.873 139.339 174C141.371 175.375 144.263 178.262 145.766 180.415C148.166 183.851 148.5 185.265 148.5 191.988C148.5 198.506 148.128 200.196 146 203.337C141.882 209.415 136.543 212.369 129 212.742C124.314 212.974 121.555 212.582 119.112 211.34M227.5 203.759C216.5 200.979 207.367 198.601 207.205 198.474C207.043 198.347 207.434 196.164 208.074 193.622C208.866 190.475 209.758 189.006 210.869 189.018C211.766 189.027 218.69 190.536 226.256 192.369L240.013 195.704L239.756 121.164L239.5 46.625L200.5 36.789L161.5 26.954L128.762 37.605L96.024 48.256L56.006 38.249L15.987 28.242L16.244 102.815L16.5 177.388L32.5 181.341C41.3 183.515 48.633 185.398 48.795 185.525C48.957 185.653 48.566 187.836 47.926 190.378C46.991 194.091 46.344 194.991 44.631 194.955C43.459 194.93 34.175 192.792 24 190.205L5.5 185.5L5.244 100.25C5.072 42.651 5.321 15 6.012 15C6.574 15 26.857 19.96 51.086 26.021L95.137 37.043L127.517 26.38L159.898 15.717L205.199 27.108L250.5 38.5L250.756 123.75C250.998 204.505 250.919 208.995 249.256 208.907C248.29 208.855 238.5 206.539 227.5 203.759M133.64 200.827C137.998 198.694 139.693 191.533 137.022 186.541C136.301 185.193 134.18 183.364 132.308 182.476C121.798 177.489 112.426 191.153 120.689 199.416C124.256 202.983 128.328 203.427 133.64 200.827" />
    <glyph glyph-name="user"
      unicode="&#xEA1C;"
      horiz-adv-x="256" d="M118 250.057C104.887 247.608 95.313 242.256 85.568 231.925C78.611 224.55 74.307 217.133 71.363 207.448C68.553 198.2 68.761 173.932 71.732 164.5C77.981 144.655 95.674 128.056 114.799 124.097C121.594 122.69 134.406 122.69 141.201 124.097C160.559 128.104 178.582 145.293 184.613 165.5C185.982 170.084 186.41 175.039 186.429 186.5C186.455 202.947 185.377 208.348 179.904 219.19C176.456 226.021 165.872 237.59 159.09 241.942C148.551 248.705 130.184 252.332 118 250.057M137.447 238.925C146.818 237.193 153.765 233.339 161.552 225.552C172.663 214.441 176 205.342 176 186.161C176 170.442 173.032 160.769 165.273 151.202C149.665 131.957 119.913 127.92 100.268 142.381C85.838 153.004 80 165.615 80 186.161C80 205.46 83.293 214.459 94.42 225.568C106.643 237.769 120.473 242.063 137.447 238.925M96 99.449C81.028 97.733 74.421 96.512 57.668 92.36C40.76 88.171 36.22 86.107 29.549 79.578C17.662 67.944 16 61.775 16 29.29L16 5L128 5L240 5L240 29.29C240 55.81 239.187 61.59 234.279 69.967C230.631 76.192 223.188 83.364 217.255 86.371C212.167 88.949 194.033 93.908 180.151 96.518C156.753 100.916 119.984 102.196 96 99.449M144.959 89.947C174.433 88.077 206.345 81.299 215.575 74.948C221.029 71.196 224.592 66.579 227.074 60.048C228.736 55.673 229 52.309 229 35.489L229 16L128 16L27 16L27.006 35.25C27.009 45.838 27.471 56.155 28.033 58.177C29.551 63.644 34.903 70.983 40.046 74.651C50.815 82.333 87.645 89.356 125 90.851C126.925 90.928 135.906 90.521 144.959 89.947" />
    <glyph glyph-name="user-1"
      unicode="&#x75;&#x73;&#x65;&#x72;"
      horiz-adv-x="256" d="M118 250.057C104.887 247.608 95.313 242.256 85.568 231.925C78.611 224.55 74.307 217.133 71.363 207.448C68.553 198.2 68.761 173.932 71.732 164.5C77.981 144.655 95.674 128.056 114.799 124.097C121.594 122.69 134.406 122.69 141.201 124.097C160.559 128.104 178.582 145.293 184.613 165.5C185.982 170.084 186.41 175.039 186.429 186.5C186.455 202.947 185.377 208.348 179.904 219.19C176.456 226.021 165.872 237.59 159.09 241.942C148.551 248.705 130.184 252.332 118 250.057M137.447 238.925C146.818 237.193 153.765 233.339 161.552 225.552C172.663 214.441 176 205.342 176 186.161C176 170.442 173.032 160.769 165.273 151.202C149.665 131.957 119.913 127.92 100.268 142.381C85.838 153.004 80 165.615 80 186.161C80 205.46 83.293 214.459 94.42 225.568C106.643 237.769 120.473 242.063 137.447 238.925M96 99.449C81.028 97.733 74.421 96.512 57.668 92.36C40.76 88.171 36.22 86.107 29.549 79.578C17.662 67.944 16 61.775 16 29.29L16 5L128 5L240 5L240 29.29C240 55.81 239.187 61.59 234.279 69.967C230.631 76.192 223.188 83.364 217.255 86.371C212.167 88.949 194.033 93.908 180.151 96.518C156.753 100.916 119.984 102.196 96 99.449M144.959 89.947C174.433 88.077 206.345 81.299 215.575 74.948C221.029 71.196 224.592 66.579 227.074 60.048C228.736 55.673 229 52.309 229 35.489L229 16L128 16L27 16L27.006 35.25C27.009 45.838 27.471 56.155 28.033 58.177C29.551 63.644 34.903 70.983 40.046 74.651C50.815 82.333 87.645 89.356 125 90.851C126.925 90.928 135.906 90.521 144.959 89.947" />
    <glyph glyph-name="add-29"
      unicode="&#xEA1D;"
      horiz-adv-x="256" d="M118 250.057C104.887 247.608 95.313 242.256 85.568 231.925C73.774 219.423 70.099 209.395 69.289 187.5C68.417 163.961 70.981 150.626 78.581 139.18C86.176 127.742 98.096 118.597 110.458 114.726C120.319 111.638 135.681 111.638 145.542 114.726C163.018 120.198 177.83 134.854 183.718 152.5C186.253 160.098 186.39 161.53 186.443 181C186.505 203.462 185.819 207.473 179.904 219.19C176.456 226.021 165.872 237.59 159.09 241.942C148.551 248.705 130.184 252.332 118 250.057M137.447 238.925C146.818 237.193 153.765 233.339 161.552 225.552C169.089 218.014 172.919 211.298 174.866 202.201C176.553 194.317 176.291 166.86 174.454 159.068C169.489 138.002 150.167 123 128 123C114.265 123 102.713 127.966 93.081 138.013C82.818 148.717 80.037 157.91 80.015 181.201C79.992 205.814 82.561 213.728 94.42 225.568C106.643 237.769 120.473 242.063 137.447 238.925M208 107.052L208 91L192 91L176 91L176 85.5L176 80L192 80L208 80L208 64L208 48L213.5 48L219 48L219 64L219 80L235.052 80L251.105 80L250.802 85.25L250.5 90.5L234.775 90.775L219.051 91.051L218.775 106.775L218.5 122.5L213.25 122.802L208 123.105L208 107.052M59.868 78.491C50.845 76.693 39.82 71.396 32 65.1C15.273 51.635 6.492 34.514 5.791 14L5.5 5.5L128 5.5L250.5 5.5L250.802 10.75L251.105 16L133.507 16L15.909 16L16.589 19.75C20.502 41.327 34.946 58.641 55.277 66.126C61.253 68.325 62.921 68.43 97.25 68.766L133 69.115L133 74.558L133 80L99.75 79.906C76.555 79.84 64.494 79.413 59.868 78.491" />
    <glyph glyph-name="add-29-1"
      unicode="&#x61;&#x64;&#x64;&#x5F;&#x32;&#x39;"
      horiz-adv-x="256" d="M118 250.057C104.887 247.608 95.313 242.256 85.568 231.925C73.774 219.423 70.099 209.395 69.289 187.5C68.417 163.961 70.981 150.626 78.581 139.18C86.176 127.742 98.096 118.597 110.458 114.726C120.319 111.638 135.681 111.638 145.542 114.726C163.018 120.198 177.83 134.854 183.718 152.5C186.253 160.098 186.39 161.53 186.443 181C186.505 203.462 185.819 207.473 179.904 219.19C176.456 226.021 165.872 237.59 159.09 241.942C148.551 248.705 130.184 252.332 118 250.057M137.447 238.925C146.818 237.193 153.765 233.339 161.552 225.552C169.089 218.014 172.919 211.298 174.866 202.201C176.553 194.317 176.291 166.86 174.454 159.068C169.489 138.002 150.167 123 128 123C114.265 123 102.713 127.966 93.081 138.013C82.818 148.717 80.037 157.91 80.015 181.201C79.992 205.814 82.561 213.728 94.42 225.568C106.643 237.769 120.473 242.063 137.447 238.925M208 107.052L208 91L192 91L176 91L176 85.5L176 80L192 80L208 80L208 64L208 48L213.5 48L219 48L219 64L219 80L235.052 80L251.105 80L250.802 85.25L250.5 90.5L234.775 90.775L219.051 91.051L218.775 106.775L218.5 122.5L213.25 122.802L208 123.105L208 107.052M59.868 78.491C50.845 76.693 39.82 71.396 32 65.1C15.273 51.635 6.492 34.514 5.791 14L5.5 5.5L128 5.5L250.5 5.5L250.802 10.75L251.105 16L133.507 16L15.909 16L16.589 19.75C20.502 41.327 34.946 58.641 55.277 66.126C61.253 68.325 62.921 68.43 97.25 68.766L133 69.115L133 74.558L133 80L99.75 79.906C76.555 79.84 64.494 79.413 59.868 78.491" />
    <glyph glyph-name="n-edit"
      unicode="&#xEA1E;"
      horiz-adv-x="256" d="M141.357 185.75L80.22 124.5L70.987 93.706C65.909 76.769 61.976 62.691 62.247 62.42C62.517 62.149 76.731 66.089 93.833 71.175L124.927 80.421L186.208 141.708L247.488 202.995L225.503 224.997C213.411 237.099 203.287 247 203.005 247C202.724 247 174.982 219.437 141.357 185.75M218.006 217.494L232.486 202.988L175.993 146.51L119.5 90.031L99.158 83.941C87.97 80.592 78.583 78.084 78.298 78.369C78.013 78.654 80.511 88.005 83.848 99.149L89.917 119.41L146.205 175.705C177.164 206.667 202.726 232 203.01 232C203.294 232 210.042 225.472 218.006 217.494M11 112L11 11L112 11L213 11L213 59L213 107L208.011 107L203.021 107L202.761 64.25L202.5 21.5L111.75 21.245L21 20.989L21 111.995L21 203L64 203L107 203L107 208L107 213L59 213L11 213L11 112" />
    <glyph glyph-name="n-edit-1"
      unicode="&#x6E;&#x5F;&#x65;&#x64;&#x69;&#x74;"
      horiz-adv-x="256" d="M141.357 185.75L80.22 124.5L70.987 93.706C65.909 76.769 61.976 62.691 62.247 62.42C62.517 62.149 76.731 66.089 93.833 71.175L124.927 80.421L186.208 141.708L247.488 202.995L225.503 224.997C213.411 237.099 203.287 247 203.005 247C202.724 247 174.982 219.437 141.357 185.75M218.006 217.494L232.486 202.988L175.993 146.51L119.5 90.031L99.158 83.941C87.97 80.592 78.583 78.084 78.298 78.369C78.013 78.654 80.511 88.005 83.848 99.149L89.917 119.41L146.205 175.705C177.164 206.667 202.726 232 203.01 232C203.294 232 210.042 225.472 218.006 217.494M11 112L11 11L112 11L213 11L213 59L213 107L208.011 107L203.021 107L202.761 64.25L202.5 21.5L111.75 21.245L21 20.989L21 111.995L21 203L64 203L107 203L107 208L107 213L59 213L11 213L11 112" />
    <glyph glyph-name="cogwheel"
      unicode="&#xEA1F;"
      horiz-adv-x="256" d="M106.988 250.25C106.981 249.838 106.311 242.075 105.5 233C104.689 223.925 104.019 216.234 104.012 215.908C104.006 215.583 102.153 214.763 99.895 214.087C97.637 213.41 92.912 211.482 89.394 209.802L82.998 206.746L71.249 216.624C64.787 222.057 58.684 227.143 57.687 227.926C56.027 229.229 54.657 228.134 41.437 214.937C33.497 207.011 27 200.268 27 199.952C27 199.637 31.988 193.454 38.084 186.213L49.167 173.048L46.191 166.749C44.554 163.284 42.648 158.556 41.954 156.241C40.885 152.672 40.223 151.96 37.597 151.554C34.072 151.009 9.988 149 6.981 149C5.069 149 5 148.267 5 128C5 116.45 5.338 106.994 5.75 106.988C6.162 106.981 13.925 106.311 23 105.5C32.075 104.689 39.766 104.019 40.092 104.012C40.417 104.006 41.253 102.099 41.949 99.775C42.645 97.451 44.554 92.716 46.191 89.251L49.167 82.952L38.084 69.787C31.988 62.546 27 56.363 27 56.048C27 55.732 33.497 48.989 41.437 41.063C54.657 27.866 56.027 26.771 57.687 28.074C58.684 28.857 64.769 33.927 71.208 39.341L82.916 49.184L89.233 46.2C92.707 44.558 97.451 42.645 99.775 41.949C102.099 41.253 104.006 40.417 104.012 40.092C104.019 39.766 104.689 32.075 105.5 23C106.311 13.925 106.981 6.162 106.988 5.75C106.994 5.338 116.45 5 128 5C139.55 5 149.006 5.338 149.012 5.75C149.019 6.162 149.689 13.925 150.5 23C151.311 32.075 151.981 39.766 151.988 40.092C151.994 40.417 153.901 41.253 156.225 41.949C158.549 42.645 163.293 44.558 166.767 46.2L173.084 49.184L184.792 39.341C191.231 33.927 197.316 28.857 198.313 28.074C199.973 26.771 201.343 27.866 214.563 41.063C222.503 48.989 229 55.732 229 56.048C229 56.363 224.012 62.546 217.916 69.787L206.833 82.952L209.809 89.251C211.446 92.716 213.355 97.451 214.051 99.775C214.747 102.099 215.583 104.006 215.908 104.012C216.234 104.019 223.925 104.689 233 105.5C242.075 106.311 249.838 106.981 250.25 106.988C250.662 106.994 251 116.45 251 128C251 148.267 250.931 149 249.019 149C246.012 149 221.928 151.009 218.403 151.554C215.777 151.96 215.115 152.672 214.046 156.241C213.352 158.556 211.446 163.284 209.809 166.749L206.833 173.048L217.916 186.213C224.012 193.454 229 199.637 229 199.952C229 200.268 222.503 207.011 214.563 214.937C201.343 228.134 199.973 229.229 198.313 227.926C197.316 227.143 191.202 222.048 184.727 216.604L172.955 206.706L165.227 210.3C160.977 212.276 156.262 214.191 154.75 214.555C153.238 214.919 151.994 215.506 151.988 215.858C151.981 216.211 151.311 223.925 150.5 233C149.689 242.075 149.019 249.838 149.012 250.25C149.006 250.662 139.55 251 128 251C116.45 251 106.994 250.662 106.988 250.25M139.332 235.25C139.657 232.637 140.227 226 140.6 220.5C141.478 207.541 141.934 206.42 146.678 205.545C151.88 204.585 163.93 199.701 169.016 196.49C171.31 195.042 173.707 194.071 174.343 194.333C174.979 194.594 180.882 199.359 187.461 204.921L199.422 215.034L207.161 207.34C211.417 203.109 214.678 199.288 214.407 198.85C214.137 198.412 209.615 192.979 204.358 186.777C199.102 180.575 194.589 174.979 194.329 174.343C194.07 173.707 195.042 171.31 196.49 169.016C199.701 163.93 204.585 151.88 205.545 146.678C206.42 141.934 207.541 141.478 220.5 140.6C226 140.227 232.637 139.657 235.25 139.332L240 138.742L240 127.932L240 117.123L235.75 116.58C233.412 116.281 226.194 115.594 219.709 115.052C213.224 114.51 207.537 113.832 207.072 113.545C206.607 113.257 205.915 111.33 205.533 109.261C204.584 104.113 199.685 92.046 196.49 86.984C195.042 84.69 194.071 82.293 194.333 81.657C194.594 81.021 199.359 75.118 204.921 68.539L215.034 56.578L207.34 48.839C203.109 44.583 199.288 41.322 198.85 41.593C198.412 41.863 192.979 46.385 186.777 51.642C180.575 56.898 174.99 61.407 174.366 61.662C173.743 61.916 170.882 60.678 168.008 58.91C162.736 55.666 148.007 50.038 144.725 50.013C142.234 49.995 141.378 46.985 140.6 35.5C140.227 30 139.657 23.363 139.332 20.75L138.742 16L127.986 16L117.23 16L116.649 21.25C116.33 24.137 115.81 30.1 115.495 34.5C114.406 49.682 115.289 48.321 104.229 51.852C98.878 53.56 91.85 56.566 88.611 58.533C85.372 60.499 82.222 61.903 81.611 61.653C81 61.403 75.425 56.898 69.223 51.642C63.021 46.385 57.588 41.863 57.15 41.593C56.712 41.322 52.891 44.583 48.66 48.839L40.966 56.578L51.079 68.539C56.641 75.118 61.406 81.021 61.667 81.657C61.929 82.293 60.958 84.69 59.51 86.984C56.315 92.046 51.416 104.113 50.467 109.261C50.085 111.33 49.393 113.257 48.928 113.545C48.463 113.832 42.776 114.51 36.291 115.052C29.806 115.594 22.588 116.281 20.25 116.58L16 117.123L16 127.932L16 138.742L20.75 139.332C23.363 139.657 30 140.227 35.5 140.6C48.459 141.478 49.58 141.934 50.455 146.678C51.415 151.88 56.299 163.93 59.51 169.016C60.958 171.31 61.93 173.707 61.671 174.343C61.411 174.979 56.898 180.575 51.642 186.777C46.385 192.979 41.863 198.412 41.593 198.85C41.322 199.288 44.583 203.109 48.839 207.34L56.578 215.034L68.539 204.921C75.118 199.359 81.021 194.594 81.657 194.333C82.293 194.071 84.69 195.042 86.984 196.49C92.07 199.701 104.12 204.585 109.322 205.545C114.066 206.42 114.522 207.541 115.4 220.5C115.773 226 116.343 232.637 116.668 235.25L117.258 240L128 240L138.742 240L139.332 235.25M121.854 169.936C110.094 168.583 96.831 159.549 90.823 148.799C81.636 132.361 84.607 111.488 98.048 98.048C122.614 73.481 164.495 87.339 170.057 121.874C173.303 142.027 160.013 162.766 140 168.778C135.042 170.268 128.415 170.69 121.854 169.936M141.501 156.628C152.797 151.457 159.452 140.81 159.397 128C159.349 116.921 155.016 108.223 146.497 102.106C120.135 83.174 85.753 111.754 99.298 141.339C106.581 157.247 125.32 164.036 141.501 156.628" />
    <glyph glyph-name="cogwheel-1"
      unicode="&#x63;&#x6F;&#x67;&#x77;&#x68;&#x65;&#x65;&#x6C;"
      horiz-adv-x="256" d="M106.988 250.25C106.981 249.838 106.311 242.075 105.5 233C104.689 223.925 104.019 216.234 104.012 215.908C104.006 215.583 102.153 214.763 99.895 214.087C97.637 213.41 92.912 211.482 89.394 209.802L82.998 206.746L71.249 216.624C64.787 222.057 58.684 227.143 57.687 227.926C56.027 229.229 54.657 228.134 41.437 214.937C33.497 207.011 27 200.268 27 199.952C27 199.637 31.988 193.454 38.084 186.213L49.167 173.048L46.191 166.749C44.554 163.284 42.648 158.556 41.954 156.241C40.885 152.672 40.223 151.96 37.597 151.554C34.072 151.009 9.988 149 6.981 149C5.069 149 5 148.267 5 128C5 116.45 5.338 106.994 5.75 106.988C6.162 106.981 13.925 106.311 23 105.5C32.075 104.689 39.766 104.019 40.092 104.012C40.417 104.006 41.253 102.099 41.949 99.775C42.645 97.451 44.554 92.716 46.191 89.251L49.167 82.952L38.084 69.787C31.988 62.546 27 56.363 27 56.048C27 55.732 33.497 48.989 41.437 41.063C54.657 27.866 56.027 26.771 57.687 28.074C58.684 28.857 64.769 33.927 71.208 39.341L82.916 49.184L89.233 46.2C92.707 44.558 97.451 42.645 99.775 41.949C102.099 41.253 104.006 40.417 104.012 40.092C104.019 39.766 104.689 32.075 105.5 23C106.311 13.925 106.981 6.162 106.988 5.75C106.994 5.338 116.45 5 128 5C139.55 5 149.006 5.338 149.012 5.75C149.019 6.162 149.689 13.925 150.5 23C151.311 32.075 151.981 39.766 151.988 40.092C151.994 40.417 153.901 41.253 156.225 41.949C158.549 42.645 163.293 44.558 166.767 46.2L173.084 49.184L184.792 39.341C191.231 33.927 197.316 28.857 198.313 28.074C199.973 26.771 201.343 27.866 214.563 41.063C222.503 48.989 229 55.732 229 56.048C229 56.363 224.012 62.546 217.916 69.787L206.833 82.952L209.809 89.251C211.446 92.716 213.355 97.451 214.051 99.775C214.747 102.099 215.583 104.006 215.908 104.012C216.234 104.019 223.925 104.689 233 105.5C242.075 106.311 249.838 106.981 250.25 106.988C250.662 106.994 251 116.45 251 128C251 148.267 250.931 149 249.019 149C246.012 149 221.928 151.009 218.403 151.554C215.777 151.96 215.115 152.672 214.046 156.241C213.352 158.556 211.446 163.284 209.809 166.749L206.833 173.048L217.916 186.213C224.012 193.454 229 199.637 229 199.952C229 200.268 222.503 207.011 214.563 214.937C201.343 228.134 199.973 229.229 198.313 227.926C197.316 227.143 191.202 222.048 184.727 216.604L172.955 206.706L165.227 210.3C160.977 212.276 156.262 214.191 154.75 214.555C153.238 214.919 151.994 215.506 151.988 215.858C151.981 216.211 151.311 223.925 150.5 233C149.689 242.075 149.019 249.838 149.012 250.25C149.006 250.662 139.55 251 128 251C116.45 251 106.994 250.662 106.988 250.25M139.332 235.25C139.657 232.637 140.227 226 140.6 220.5C141.478 207.541 141.934 206.42 146.678 205.545C151.88 204.585 163.93 199.701 169.016 196.49C171.31 195.042 173.707 194.071 174.343 194.333C174.979 194.594 180.882 199.359 187.461 204.921L199.422 215.034L207.161 207.34C211.417 203.109 214.678 199.288 214.407 198.85C214.137 198.412 209.615 192.979 204.358 186.777C199.102 180.575 194.589 174.979 194.329 174.343C194.07 173.707 195.042 171.31 196.49 169.016C199.701 163.93 204.585 151.88 205.545 146.678C206.42 141.934 207.541 141.478 220.5 140.6C226 140.227 232.637 139.657 235.25 139.332L240 138.742L240 127.932L240 117.123L235.75 116.58C233.412 116.281 226.194 115.594 219.709 115.052C213.224 114.51 207.537 113.832 207.072 113.545C206.607 113.257 205.915 111.33 205.533 109.261C204.584 104.113 199.685 92.046 196.49 86.984C195.042 84.69 194.071 82.293 194.333 81.657C194.594 81.021 199.359 75.118 204.921 68.539L215.034 56.578L207.34 48.839C203.109 44.583 199.288 41.322 198.85 41.593C198.412 41.863 192.979 46.385 186.777 51.642C180.575 56.898 174.99 61.407 174.366 61.662C173.743 61.916 170.882 60.678 168.008 58.91C162.736 55.666 148.007 50.038 144.725 50.013C142.234 49.995 141.378 46.985 140.6 35.5C140.227 30 139.657 23.363 139.332 20.75L138.742 16L127.986 16L117.23 16L116.649 21.25C116.33 24.137 115.81 30.1 115.495 34.5C114.406 49.682 115.289 48.321 104.229 51.852C98.878 53.56 91.85 56.566 88.611 58.533C85.372 60.499 82.222 61.903 81.611 61.653C81 61.403 75.425 56.898 69.223 51.642C63.021 46.385 57.588 41.863 57.15 41.593C56.712 41.322 52.891 44.583 48.66 48.839L40.966 56.578L51.079 68.539C56.641 75.118 61.406 81.021 61.667 81.657C61.929 82.293 60.958 84.69 59.51 86.984C56.315 92.046 51.416 104.113 50.467 109.261C50.085 111.33 49.393 113.257 48.928 113.545C48.463 113.832 42.776 114.51 36.291 115.052C29.806 115.594 22.588 116.281 20.25 116.58L16 117.123L16 127.932L16 138.742L20.75 139.332C23.363 139.657 30 140.227 35.5 140.6C48.459 141.478 49.58 141.934 50.455 146.678C51.415 151.88 56.299 163.93 59.51 169.016C60.958 171.31 61.93 173.707 61.671 174.343C61.411 174.979 56.898 180.575 51.642 186.777C46.385 192.979 41.863 198.412 41.593 198.85C41.322 199.288 44.583 203.109 48.839 207.34L56.578 215.034L68.539 204.921C75.118 199.359 81.021 194.594 81.657 194.333C82.293 194.071 84.69 195.042 86.984 196.49C92.07 199.701 104.12 204.585 109.322 205.545C114.066 206.42 114.522 207.541 115.4 220.5C115.773 226 116.343 232.637 116.668 235.25L117.258 240L128 240L138.742 240L139.332 235.25M121.854 169.936C110.094 168.583 96.831 159.549 90.823 148.799C81.636 132.361 84.607 111.488 98.048 98.048C122.614 73.481 164.495 87.339 170.057 121.874C173.303 142.027 160.013 162.766 140 168.778C135.042 170.268 128.415 170.69 121.854 169.936M141.501 156.628C152.797 151.457 159.452 140.81 159.397 128C159.349 116.921 155.016 108.223 146.497 102.106C120.135 83.174 85.753 111.754 99.298 141.339C106.581 157.247 125.32 164.036 141.501 156.628" />
    <glyph glyph-name="preferences"
      unicode="&#xEA20;"
      horiz-adv-x="256" d="M64 208L64 171L85.5 171L107 171L107 187L107 203L176 203L245 203L245 208L245 213L176 213L107 213L107 229L107 245L85.5 245L64 245L64 208M96 208L96 181L85.5 181L75 181L75 208L75 235L85.5 235L96 235L96 208M11 208L11 203L27 203L43 203L43 208L43 213L27 213L11 213L11 208M149 149L149 133L80 133L11 133L11 128L11 123L80 123L149 123L149 107L149 91L170.5 91L192 91L192 128L192 165L170.5 165L149 165L149 149M181 128L181 101L170.5 101L160 101L160 128L160 155L170.5 155L181 155L181 128M213 128L213 123L229 123L245 123L245 128L245 133L229 133L213 133L213 128M64 48L64 11L85.5 11L107 11L107 27L107 43L176 43L245 43L245 48L245 53L176 53L107 53L107 69L107 85L85.5 85L64 85L64 48M96 48L96 21L85.5 21L75 21L75 48L75 75L85.5 75L96 75L96 48M11 48L11 43L27 43L43 43L43 48L43 53L27 53L11 53L11 48" />
    <glyph glyph-name="preferences-1"
      unicode="&#x70;&#x72;&#x65;&#x66;&#x65;&#x72;&#x65;&#x6E;&#x63;&#x65;&#x73;"
      horiz-adv-x="256" d="M64 208L64 171L85.5 171L107 171L107 187L107 203L176 203L245 203L245 208L245 213L176 213L107 213L107 229L107 245L85.5 245L64 245L64 208M96 208L96 181L85.5 181L75 181L75 208L75 235L85.5 235L96 235L96 208M11 208L11 203L27 203L43 203L43 208L43 213L27 213L11 213L11 208M149 149L149 133L80 133L11 133L11 128L11 123L80 123L149 123L149 107L149 91L170.5 91L192 91L192 128L192 165L170.5 165L149 165L149 149M181 128L181 101L170.5 101L160 101L160 128L160 155L170.5 155L181 155L181 128M213 128L213 123L229 123L245 123L245 128L245 133L229 133L213 133L213 128M64 48L64 11L85.5 11L107 11L107 27L107 43L176 43L245 43L245 48L245 53L176 53L107 53L107 69L107 85L85.5 85L64 85L64 48M96 48L96 21L85.5 21L75 21L75 48L75 75L85.5 75L96 75L96 48M11 48L11 43L27 43L43 43L43 48L43 53L27 53L11 53L11 48" />
    <glyph glyph-name="menu-8"
      unicode="&#xEA21;"
      horiz-adv-x="256" d="M5 202.496L5 196.992L127.75 197.246L250.5 197.5L250.802 202.75L251.105 208L128.052 208L5 208L5 202.496M5 128L5 123L128 123L251 123L251 128L251 133L128 133L5 133L5 128M5 53.504L5 48L128.052 48L251.105 48L250.802 53.25L250.5 58.5L127.75 58.754L5 59.008L5 53.504" />
    <glyph glyph-name="menu-8-1"
      unicode="&#x6D;&#x65;&#x6E;&#x75;&#x5F;&#x38;"
      horiz-adv-x="256" d="M5 202.496L5 196.992L127.75 197.246L250.5 197.5L250.802 202.75L251.105 208L128.052 208L5 208L5 202.496M5 128L5 123L128 123L251 123L251 128L251 133L128 133L5 133L5 128M5 53.504L5 48L128.052 48L251.105 48L250.802 53.25L250.5 58.5L127.75 58.754L5 59.008L5 53.504" />
    <glyph glyph-name="clock"
      unicode="&#xEA22;"
      horiz-adv-x="256" d="M114.5 249.83C68.227 244.573 28.373 213.044 12.647 169.253C-4.227 122.261 9.627 68.791 47.15 36.083C104.908 -14.262 193.643 -0.484 232.96 64.933C261.74 112.819 254.38 174.313 215.135 213.855C194.382 234.765 169.464 246.699 139.789 249.94C128.857 251.133 125.863 251.12 114.5 249.83M142.566 238.928C180.584 233.64 212.617 210.251 228.969 175.841C238.675 155.415 242.158 131.636 238.509 110.71C234.221 86.126 223.938 66.029 206.954 49.046C168.738 10.829 110.344 5.136 65.5 35.254C33.706 56.607 14.531 94.321 16.311 132C17.706 161.535 28.594 186.52 49 207.011C73.5 231.612 108.738 243.633 142.566 238.928M123 165.5L123 123L165.5 123L208 123L208 128L208 133L170.5 133L133 133L133 170.5L133 208L128 208L123 208L123 165.5" />
    <glyph glyph-name="clock-1"
      unicode="&#x63;&#x6C;&#x6F;&#x63;&#x6B;"
      horiz-adv-x="256" d="M114.5 249.83C68.227 244.573 28.373 213.044 12.647 169.253C-4.227 122.261 9.627 68.791 47.15 36.083C104.908 -14.262 193.643 -0.484 232.96 64.933C261.74 112.819 254.38 174.313 215.135 213.855C194.382 234.765 169.464 246.699 139.789 249.94C128.857 251.133 125.863 251.12 114.5 249.83M142.566 238.928C180.584 233.64 212.617 210.251 228.969 175.841C238.675 155.415 242.158 131.636 238.509 110.71C234.221 86.126 223.938 66.029 206.954 49.046C168.738 10.829 110.344 5.136 65.5 35.254C33.706 56.607 14.531 94.321 16.311 132C17.706 161.535 28.594 186.52 49 207.011C73.5 231.612 108.738 243.633 142.566 238.928M123 165.5L123 123L165.5 123L208 123L208 128L208 133L170.5 133L133 133L133 170.5L133 208L128 208L123 208L123 165.5" />
    <glyph glyph-name="calendar-2"
      unicode="&#xEA23;"
      horiz-adv-x="256" d="M64 240.052L64 229L47.75 228.99C32.737 228.981 31.119 228.8 26.5 226.61C23.75 225.306 19.832 222.498 17.793 220.37C10.533 212.792 10.86 217.591 10.953 120.041C11.008 61.605 11.389 31.27 12.1 28.629C13.541 23.278 23.017 13.858 28.616 12.211C31.713 11.3 56.468 11.002 128.616 11.01L224.5 11.02L229.538 13.366C235.519 16.15 242.593 23.774 243.981 28.931C244.587 31.18 244.996 66.155 245.047 120.041C245.14 217.591 245.467 212.792 238.207 220.37C236.168 222.498 232.25 225.306 229.5 226.61C224.881 228.8 223.263 228.981 208.25 228.99L192 229L192 240.052L192 251.105L186.75 250.802L181.5 250.5L181.216 239.75L180.932 229L128 229L75.068 229L74.784 239.75L74.5 250.5L69.25 250.802L64 251.105L64 240.052M64 205.5L64 192L69.5 192L75 192L75 205.5L75 219L128 219L181 219L181 205.5L181 192L186.5 192L192 192L192 205.5L192 219L206.532 219C222.549 219 225.609 218.259 230.33 213.235C234.224 209.091 234.949 204.963 234.976 186.75L235 171L128 171L21 171L21 187.257C21 205.278 21.672 208.979 25.73 213.297C30.393 218.258 33.135 218.918 49.25 218.961L64 219L64 205.5M234.994 98.25C234.991 60.81 234.601 35.105 234.004 32.956C232.887 28.935 227.872 23.64 223.685 22.061C219.758 20.581 36.242 20.581 32.315 22.061C28.128 23.64 23.113 28.935 21.996 32.956C21.399 35.105 21.009 60.81 21.006 98.25L21 160L128 160L235 160L234.994 98.25" />
    <glyph glyph-name="calendar-2-1"
      unicode="&#x63;&#x61;&#x6C;&#x65;&#x6E;&#x64;&#x61;&#x72;&#x5F;&#x32;"
      horiz-adv-x="256" d="M64 240.052L64 229L47.75 228.99C32.737 228.981 31.119 228.8 26.5 226.61C23.75 225.306 19.832 222.498 17.793 220.37C10.533 212.792 10.86 217.591 10.953 120.041C11.008 61.605 11.389 31.27 12.1 28.629C13.541 23.278 23.017 13.858 28.616 12.211C31.713 11.3 56.468 11.002 128.616 11.01L224.5 11.02L229.538 13.366C235.519 16.15 242.593 23.774 243.981 28.931C244.587 31.18 244.996 66.155 245.047 120.041C245.14 217.591 245.467 212.792 238.207 220.37C236.168 222.498 232.25 225.306 229.5 226.61C224.881 228.8 223.263 228.981 208.25 228.99L192 229L192 240.052L192 251.105L186.75 250.802L181.5 250.5L181.216 239.75L180.932 229L128 229L75.068 229L74.784 239.75L74.5 250.5L69.25 250.802L64 251.105L64 240.052M64 205.5L64 192L69.5 192L75 192L75 205.5L75 219L128 219L181 219L181 205.5L181 192L186.5 192L192 192L192 205.5L192 219L206.532 219C222.549 219 225.609 218.259 230.33 213.235C234.224 209.091 234.949 204.963 234.976 186.75L235 171L128 171L21 171L21 187.257C21 205.278 21.672 208.979 25.73 213.297C30.393 218.258 33.135 218.918 49.25 218.961L64 219L64 205.5M234.994 98.25C234.991 60.81 234.601 35.105 234.004 32.956C232.887 28.935 227.872 23.64 223.685 22.061C219.758 20.581 36.242 20.581 32.315 22.061C28.128 23.64 23.113 28.935 21.996 32.956C21.399 35.105 21.009 60.81 21.006 98.25L21 160L128 160L235 160L234.994 98.25" />
    <glyph glyph-name="refresh"
      unicode="&#xEA24;"
      horiz-adv-x="256" d="M115.609 249.938C80.863 245.906 50.599 228.941 30.588 202.279C14.138 180.361 5.804 155.569 5.784 128.5C5.779 121.35 6.277 112.508 6.89 108.852C14.199 65.293 42.86 29.939 83.863 13.903C102.477 6.624 120.404 4.006 138.381 5.941C200.611 12.641 245.412 58.547 250.429 120.75L251.014 128L245.724 128L240.434 128L239.225 116.75C237.688 102.435 235.069 93.132 228.92 80.138C217.701 56.433 200.373 38.826 177.5 27.892C149.913 14.705 122.296 12.631 93.829 21.61C34.105 40.446 1.769 105.677 22.566 165.364C28.022 181.023 39.812 199.109 51.492 209.738C91.683 246.312 148.771 250.013 193 218.91C201.051 213.248 215.312 199.244 218.369 193.997C220.209 190.838 220.208 190.799 218.278 191.412C212.652 193.198 169.404 205 168.487 205C167.483 205 164.528 196.138 165.281 195.385C166.017 194.65 237.401 175.068 237.82 175.487C238.302 175.969 229.32 249.013 228.703 249.63C228.496 249.837 226.228 249.719 223.663 249.367C219.464 248.792 219 248.468 219.002 246.114C219.004 243.512 222.485 214.519 223.559 208.165C224.096 204.984 223.717 205.242 215.311 213.769C200.843 228.447 185.665 237.84 165.651 244.5C148.944 250.06 132.273 251.871 115.609 249.938" />
    <glyph glyph-name="refresh-1"
      unicode="&#x72;&#x65;&#x66;&#x72;&#x65;&#x73;&#x68;"
      horiz-adv-x="256" d="M115.609 249.938C80.863 245.906 50.599 228.941 30.588 202.279C14.138 180.361 5.804 155.569 5.784 128.5C5.779 121.35 6.277 112.508 6.89 108.852C14.199 65.293 42.86 29.939 83.863 13.903C102.477 6.624 120.404 4.006 138.381 5.941C200.611 12.641 245.412 58.547 250.429 120.75L251.014 128L245.724 128L240.434 128L239.225 116.75C237.688 102.435 235.069 93.132 228.92 80.138C217.701 56.433 200.373 38.826 177.5 27.892C149.913 14.705 122.296 12.631 93.829 21.61C34.105 40.446 1.769 105.677 22.566 165.364C28.022 181.023 39.812 199.109 51.492 209.738C91.683 246.312 148.771 250.013 193 218.91C201.051 213.248 215.312 199.244 218.369 193.997C220.209 190.838 220.208 190.799 218.278 191.412C212.652 193.198 169.404 205 168.487 205C167.483 205 164.528 196.138 165.281 195.385C166.017 194.65 237.401 175.068 237.82 175.487C238.302 175.969 229.32 249.013 228.703 249.63C228.496 249.837 226.228 249.719 223.663 249.367C219.464 248.792 219 248.468 219.002 246.114C219.004 243.512 222.485 214.519 223.559 208.165C224.096 204.984 223.717 205.242 215.311 213.769C200.843 228.447 185.665 237.84 165.651 244.5C148.944 250.06 132.273 251.871 115.609 249.938" />
    <glyph glyph-name="send"
      unicode="&#xEA25;"
      horiz-adv-x="256" d="M130.75 202.208C64.887 177.084 11 156.26 11 155.932C11 155.604 24.041 146.147 39.979 134.918L68.958 114.5L69.229 68.198L69.5 21.897L92.249 38.019L114.999 54.142L111.915 58.623C109.795 61.705 108.467 62.818 107.666 62.185C104.154 59.412 80.908 43 80.492 43C80.222 43 80 57.175 80 74.5C80 91.825 80.209 106 80.464 106C80.719 106 108.95 86.216 143.199 62.036C177.449 37.855 205.748 18.393 206.087 18.786C206.619 19.402 252.001 245.222 252 247.25C252 247.662 251.662 247.974 251.25 247.943C250.838 247.912 196.613 227.331 130.75 202.208M218.536 132.846C208.302 81.506 199.608 38.733 199.215 37.795C198.626 36.389 188.476 43.167 141.563 76.295C110.247 98.408 84.802 116.95 85.018 117.5C85.527 118.799 236.187 227.146 236.729 226.604C236.956 226.377 228.769 184.186 218.536 132.846M204.964 217.641C202.922 215.745 75.053 124 74.453 124C73.797 124 34.074 152.071 33.566 152.894C33.203 153.481 203.201 218.796 205.464 218.939C205.995 218.973 205.77 218.388 204.964 217.641" />
    <glyph glyph-name="send-1"
      unicode="&#x73;&#x65;&#x6E;&#x64;"
      horiz-adv-x="256" d="M130.75 202.208C64.887 177.084 11 156.26 11 155.932C11 155.604 24.041 146.147 39.979 134.918L68.958 114.5L69.229 68.198L69.5 21.897L92.249 38.019L114.999 54.142L111.915 58.623C109.795 61.705 108.467 62.818 107.666 62.185C104.154 59.412 80.908 43 80.492 43C80.222 43 80 57.175 80 74.5C80 91.825 80.209 106 80.464 106C80.719 106 108.95 86.216 143.199 62.036C177.449 37.855 205.748 18.393 206.087 18.786C206.619 19.402 252.001 245.222 252 247.25C252 247.662 251.662 247.974 251.25 247.943C250.838 247.912 196.613 227.331 130.75 202.208M218.536 132.846C208.302 81.506 199.608 38.733 199.215 37.795C198.626 36.389 188.476 43.167 141.563 76.295C110.247 98.408 84.802 116.95 85.018 117.5C85.527 118.799 236.187 227.146 236.729 226.604C236.956 226.377 228.769 184.186 218.536 132.846M204.964 217.641C202.922 215.745 75.053 124 74.453 124C73.797 124 34.074 152.071 33.566 152.894C33.203 153.481 203.201 218.796 205.464 218.939C205.995 218.973 205.77 218.388 204.964 217.641" />
    <glyph glyph-name="email"
      unicode="&#xEA26;"
      horiz-adv-x="256" d="M22.679 227.457C16.561 225.213 11.348 220.408 8.303 214.208L5.5 208.5L5.5 128L5.5 47.5L8.303 41.792C9.898 38.544 12.768 34.768 14.963 33.03C22.946 26.707 17.453 27 127.948 27C240.605 27 234.256 26.601 242.061 34.175C244.335 36.382 247.164 40.283 248.348 42.844C250.494 47.488 250.5 47.71 250.5 128L250.5 208.5L247.697 214.208C244.574 220.569 239.398 225.243 232.965 227.512C226.84 229.673 28.578 229.621 22.679 227.457M231.093 216.675C233.832 215.23 236.349 212.864 237.743 210.425L239.987 206.5L239.743 127L239.5 47.5L237.243 44.336C236.002 42.596 233.047 40.233 230.677 39.086C226.398 37.014 225.697 37 127.934 37.022C34.102 37.043 29.308 37.131 25.401 38.905C23.147 39.929 20.222 42.282 18.901 44.133L16.5 47.5L16.257 127L16.013 206.5L18.257 210.425C19.651 212.864 22.168 215.23 24.907 216.675L29.315 219L128 219L226.685 219L231.093 216.675M44 190.5L40.608 187L84.054 143.197L127.5 99.393L171.491 143.189L215.482 186.985L211.735 190.732L207.988 194.479L167.994 154.494L128 114.509L88.245 154.255C66.38 176.115 48.244 194 47.942 194C47.639 194 45.866 192.425 44 190.5M62.987 91.487L40.525 69.008L44.269 65.264L48.014 61.519L70.529 84.035L93.045 106.55L89.247 110.258L85.45 113.967L62.987 91.487M166.742 110.247L163.033 106.45L185.513 83.987L207.992 61.525L211.736 65.269L215.481 69.014L192.965 91.529L170.45 114.045L166.742 110.247" />
    <glyph glyph-name="email-1"
      unicode="&#x65;&#x6D;&#x61;&#x69;&#x6C;"
      horiz-adv-x="256" d="M22.679 227.457C16.561 225.213 11.348 220.408 8.303 214.208L5.5 208.5L5.5 128L5.5 47.5L8.303 41.792C9.898 38.544 12.768 34.768 14.963 33.03C22.946 26.707 17.453 27 127.948 27C240.605 27 234.256 26.601 242.061 34.175C244.335 36.382 247.164 40.283 248.348 42.844C250.494 47.488 250.5 47.71 250.5 128L250.5 208.5L247.697 214.208C244.574 220.569 239.398 225.243 232.965 227.512C226.84 229.673 28.578 229.621 22.679 227.457M231.093 216.675C233.832 215.23 236.349 212.864 237.743 210.425L239.987 206.5L239.743 127L239.5 47.5L237.243 44.336C236.002 42.596 233.047 40.233 230.677 39.086C226.398 37.014 225.697 37 127.934 37.022C34.102 37.043 29.308 37.131 25.401 38.905C23.147 39.929 20.222 42.282 18.901 44.133L16.5 47.5L16.257 127L16.013 206.5L18.257 210.425C19.651 212.864 22.168 215.23 24.907 216.675L29.315 219L128 219L226.685 219L231.093 216.675M44 190.5L40.608 187L84.054 143.197L127.5 99.393L171.491 143.189L215.482 186.985L211.735 190.732L207.988 194.479L167.994 154.494L128 114.509L88.245 154.255C66.38 176.115 48.244 194 47.942 194C47.639 194 45.866 192.425 44 190.5M62.987 91.487L40.525 69.008L44.269 65.264L48.014 61.519L70.529 84.035L93.045 106.55L89.247 110.258L85.45 113.967L62.987 91.487M166.742 110.247L163.033 106.45L185.513 83.987L207.992 61.525L211.736 65.269L215.481 69.014L192.965 91.529L170.45 114.045L166.742 110.247" />
    <glyph glyph-name="at-sign-2"
      unicode="&#xEA27;"
      horiz-adv-x="256" d="M108.5 243.531C97.465 241.777 90.08 239.48 79.207 234.421C46.153 219.039 23.314 191.279 13.867 155C11.288 145.096 10.264 121.937 11.935 111.299C16.169 84.342 28.086 61.508 47.589 42.987C76.876 15.173 117.719 4.649 157.5 14.666C167.085 17.079 179 21.997 179 23.539C179 24.305 178.235 26.536 177.3 28.496C176.099 31.016 175.146 31.878 174.05 31.436C165.478 27.98 149.504 23.571 141 22.313C115.051 18.476 85.386 26.556 63 43.559C34.52 65.191 18.147 102.985 22.018 138.161C24.98 165.085 35.882 187.261 55.12 205.5C88.179 236.842 137.264 243.365 177.943 221.821C189.456 215.724 196.479 210.415 205.041 201.339C219.163 186.369 228.267 168.836 232.476 148.5C234.696 137.773 235.68 107.458 234.06 99.729C229.362 77.328 199.643 73.021 189.549 93.278L187 98.393L187 139.696L187 181L181.5 181L176 181L176 171.587L176 162.173L169.786 168.644C162.538 176.192 155.27 180.817 145.5 184.097C139.746 186.029 136.542 186.433 127.5 186.366C109.563 186.233 98.071 181.179 85.568 167.925C74.542 156.236 69.659 143.982 69.659 128C69.659 111.724 74.57 99.67 86.181 87.447C91.753 81.58 95.072 79.075 101.403 75.954C119.291 67.139 135.934 66.998 153.858 75.51C159.438 78.16 163.218 80.975 169.125 86.882L176.976 94.733L179.419 89.396C189.699 66.942 220.214 62.716 236.636 81.473C244.191 90.101 245 93.696 245 118.63C245 147.111 242.838 158.677 233.938 177.811C217.867 212.364 185.602 236.828 147.29 243.509C137.106 245.285 119.599 245.295 108.5 243.531M137.447 174.925C146.818 173.193 153.765 169.339 161.552 161.552C181.081 142.023 181.081 114.026 161.552 94.42C151.727 84.557 141.124 80 128 80C114.876 80 104.273 84.557 94.448 94.42C82.136 106.781 77.623 121.6 81.115 138.201C83.03 147.307 86.842 154.002 94.42 161.568C106.643 173.769 120.473 178.063 137.447 174.925" />
    <glyph glyph-name="at-sign-2-1"
      unicode="&#x61;&#x74;&#x5F;&#x73;&#x69;&#x67;&#x6E;&#x5F;&#x32;"
      horiz-adv-x="256" d="M108.5 243.531C97.465 241.777 90.08 239.48 79.207 234.421C46.153 219.039 23.314 191.279 13.867 155C11.288 145.096 10.264 121.937 11.935 111.299C16.169 84.342 28.086 61.508 47.589 42.987C76.876 15.173 117.719 4.649 157.5 14.666C167.085 17.079 179 21.997 179 23.539C179 24.305 178.235 26.536 177.3 28.496C176.099 31.016 175.146 31.878 174.05 31.436C165.478 27.98 149.504 23.571 141 22.313C115.051 18.476 85.386 26.556 63 43.559C34.52 65.191 18.147 102.985 22.018 138.161C24.98 165.085 35.882 187.261 55.12 205.5C88.179 236.842 137.264 243.365 177.943 221.821C189.456 215.724 196.479 210.415 205.041 201.339C219.163 186.369 228.267 168.836 232.476 148.5C234.696 137.773 235.68 107.458 234.06 99.729C229.362 77.328 199.643 73.021 189.549 93.278L187 98.393L187 139.696L187 181L181.5 181L176 181L176 171.587L176 162.173L169.786 168.644C162.538 176.192 155.27 180.817 145.5 184.097C139.746 186.029 136.542 186.433 127.5 186.366C109.563 186.233 98.071 181.179 85.568 167.925C74.542 156.236 69.659 143.982 69.659 128C69.659 111.724 74.57 99.67 86.181 87.447C91.753 81.58 95.072 79.075 101.403 75.954C119.291 67.139 135.934 66.998 153.858 75.51C159.438 78.16 163.218 80.975 169.125 86.882L176.976 94.733L179.419 89.396C189.699 66.942 220.214 62.716 236.636 81.473C244.191 90.101 245 93.696 245 118.63C245 147.111 242.838 158.677 233.938 177.811C217.867 212.364 185.602 236.828 147.29 243.509C137.106 245.285 119.599 245.295 108.5 243.531M137.447 174.925C146.818 173.193 153.765 169.339 161.552 161.552C181.081 142.023 181.081 114.026 161.552 94.42C151.727 84.557 141.124 80 128 80C114.876 80 104.273 84.557 94.448 94.42C82.136 106.781 77.623 121.6 81.115 138.201C83.03 147.307 86.842 154.002 94.42 161.568C106.643 173.769 120.473 178.063 137.447 174.925" />
    <glyph glyph-name="presentation"
      unicode="&#xEA28;"
      horiz-adv-x="256" d="M47.903 249.911C35.815 248.067 25.759 238.744 22.473 226.333C18.488 211.281 27.247 194.432 41.92 188.921C49.465 186.087 60.479 186.521 67.183 189.916C77.804 195.294 84.293 205.254 84.831 217C85.286 226.925 82.732 233.91 76.234 240.516C68.526 248.35 58.807 251.573 47.903 249.911M133.667 250.333C133.3 249.967 133 245.017 133 239.333L133 229L120 229L107 229L107 224L107 219L120.75 218.913C128.313 218.865 157 218.752 184.5 218.663L234.5 218.5L234.757 154.75L235.015 91L171.007 91L107 91L107 85.5L107 80L139.764 80L172.527 80L187.367 45.25C195.528 26.137 202.562 10.12 202.997 9.656C203.432 9.192 205.832 9.717 208.331 10.822L212.874 12.832L198.577 46.166L184.28 79.5L214.64 79.764L245 80.029L245 154.514L245 229L194.5 229L144 229L144 240L144 251L139.167 251C136.508 251 134.033 250.7 133.667 250.333M61.5 238.121C69.728 234.347 74.143 227.533 74.142 218.611C74.142 212.074 72.962 209.071 68.421 204.044C58.024 192.536 39.116 196.656 33.378 211.68C30.074 220.332 33.833 231.345 41.812 236.381C48.236 240.436 55.126 241.045 61.5 238.121M30.939 169.639C23.787 167.704 19.82 164.871 15.5 158.61L11.5 152.814L11.225 78.907L10.95 5L15.95 5L20.949 5L21.224 76.75L21.5 148.5L23.701 152.038C24.911 153.984 27.672 156.572 29.837 157.788C33.544 159.872 34.967 160 54.386 160L75 160L75 82.5L75 5L80 5L85 5L85 82.5L85 160L128.052 160L171.105 160L170.802 165.25L170.5 170.5L103 170.686C52.118 170.826 34.377 170.568 30.939 169.639" />
    <glyph glyph-name="presentation-1"
      unicode="&#x70;&#x72;&#x65;&#x73;&#x65;&#x6E;&#x74;&#x61;&#x74;&#x69;&#x6F;&#x6E;"
      horiz-adv-x="256" d="M47.903 249.911C35.815 248.067 25.759 238.744 22.473 226.333C18.488 211.281 27.247 194.432 41.92 188.921C49.465 186.087 60.479 186.521 67.183 189.916C77.804 195.294 84.293 205.254 84.831 217C85.286 226.925 82.732 233.91 76.234 240.516C68.526 248.35 58.807 251.573 47.903 249.911M133.667 250.333C133.3 249.967 133 245.017 133 239.333L133 229L120 229L107 229L107 224L107 219L120.75 218.913C128.313 218.865 157 218.752 184.5 218.663L234.5 218.5L234.757 154.75L235.015 91L171.007 91L107 91L107 85.5L107 80L139.764 80L172.527 80L187.367 45.25C195.528 26.137 202.562 10.12 202.997 9.656C203.432 9.192 205.832 9.717 208.331 10.822L212.874 12.832L198.577 46.166L184.28 79.5L214.64 79.764L245 80.029L245 154.514L245 229L194.5 229L144 229L144 240L144 251L139.167 251C136.508 251 134.033 250.7 133.667 250.333M61.5 238.121C69.728 234.347 74.143 227.533 74.142 218.611C74.142 212.074 72.962 209.071 68.421 204.044C58.024 192.536 39.116 196.656 33.378 211.68C30.074 220.332 33.833 231.345 41.812 236.381C48.236 240.436 55.126 241.045 61.5 238.121M30.939 169.639C23.787 167.704 19.82 164.871 15.5 158.61L11.5 152.814L11.225 78.907L10.95 5L15.95 5L20.949 5L21.224 76.75L21.5 148.5L23.701 152.038C24.911 153.984 27.672 156.572 29.837 157.788C33.544 159.872 34.967 160 54.386 160L75 160L75 82.5L75 5L80 5L85 5L85 82.5L85 160L128.052 160L171.105 160L170.802 165.25L170.5 170.5L103 170.686C52.118 170.826 34.377 170.568 30.939 169.639" />
    <glyph glyph-name="pulse"
      unicode="&#xEA29;"
      horiz-adv-x="256" d="M77.966 180.25L60.442 133.5L32.721 133.234L5 132.968L5 127.984L5 123L36.378 123L67.755 123L81.621 160C89.248 180.35 95.715 196.997 95.994 196.993C96.272 196.989 110.637 159.189 127.916 112.993C145.195 66.797 159.598 29 159.921 29C160.245 29 168.395 50.038 178.034 75.75L195.558 122.5L223.279 122.766L251 123.032L251 128.016L251 133L219.622 133L188.245 133L174.379 96C166.752 75.65 160.283 59 160.002 59C159.721 59 145.32 96.8 128 143C110.68 189.2 96.28 227 96 227C95.72 227 87.605 205.963 77.966 180.25" />
    <glyph glyph-name="pulse-1"
      unicode="&#x70;&#x75;&#x6C;&#x73;&#x65;"
      horiz-adv-x="256" d="M77.966 180.25L60.442 133.5L32.721 133.234L5 132.968L5 127.984L5 123L36.378 123L67.755 123L81.621 160C89.248 180.35 95.715 196.997 95.994 196.993C96.272 196.989 110.637 159.189 127.916 112.993C145.195 66.797 159.598 29 159.921 29C160.245 29 168.395 50.038 178.034 75.75L195.558 122.5L223.279 122.766L251 123.032L251 128.016L251 133L219.622 133L188.245 133L174.379 96C166.752 75.65 160.283 59 160.002 59C159.721 59 145.32 96.8 128 143C110.68 189.2 96.28 227 96 227C95.72 227 87.605 205.963 77.966 180.25" />
    <glyph glyph-name="send-message"
      unicode="&#xEA2A;"
      horiz-adv-x="256" d="M126.763 200.026C60.357 173.124 5.379 150.751 4.588 150.307C3.613 149.76 19.181 141.942 52.969 126.012L102.788 102.524L126.141 52.828C138.985 25.495 149.792 3.664 150.156 4.316C151.048 5.913 249 247.915 249 248.522C249 248.785 248.662 248.986 248.25 248.969C247.838 248.953 193.168 226.928 126.763 200.026M161.615 169.115L105.736 113.23L100.971 115.365C85.252 122.408 30.065 148.583 30.055 149C30.046 149.409 215.381 224.682 216.997 224.925C217.27 224.966 192.348 199.852 161.615 169.115M224.059 214.75C213.511 188.122 149.672 31.306 149.184 30.824C148.808 30.452 140.531 47.102 130.791 67.824L113.082 105.5L168.787 161.25C199.426 191.913 224.596 217 224.722 217C224.848 217 224.549 215.987 224.059 214.75" />
    <glyph glyph-name="send-message-1"
      unicode="&#x73;&#x65;&#x6E;&#x64;&#x5F;&#x6D;&#x65;&#x73;&#x73;&#x61;&#x67;&#x65;"
      horiz-adv-x="256" d="M126.763 200.026C60.357 173.124 5.379 150.751 4.588 150.307C3.613 149.76 19.181 141.942 52.969 126.012L102.788 102.524L126.141 52.828C138.985 25.495 149.792 3.664 150.156 4.316C151.048 5.913 249 247.915 249 248.522C249 248.785 248.662 248.986 248.25 248.969C247.838 248.953 193.168 226.928 126.763 200.026M161.615 169.115L105.736 113.23L100.971 115.365C85.252 122.408 30.065 148.583 30.055 149C30.046 149.409 215.381 224.682 216.997 224.925C217.27 224.966 192.348 199.852 161.615 169.115M224.059 214.75C213.511 188.122 149.672 31.306 149.184 30.824C148.808 30.452 140.531 47.102 130.791 67.824L113.082 105.5L168.787 161.25C199.426 191.913 224.596 217 224.722 217C224.848 217 224.549 215.987 224.059 214.75" />
    <glyph glyph-name="phone"
      unicode="&#xEA2B;"
      horiz-adv-x="256" d="M43.946 239.151C21.292 233.163 18.796 232.007 14.037 225.304C11.77 222.112 11.51 220.813 11.59 213.115C11.772 195.801 20.267 166.742 32.527 141.5C44.621 116.597 56.612 99.521 75.92 79.708C95.435 59.683 115.037 45.511 140.654 32.907C163.153 21.838 199.641 10.983 214.266 11.009C221.322 11.022 229.152 15.417 231.975 20.95C234.842 26.57 245 66.152 245 71.703C245 77.903 241.699 84.509 237.071 87.572C232.681 90.477 193.007 108.295 184.646 111.116C177.753 113.442 171.68 112.933 166.759 109.616C164.041 107.785 157.292 100.121 148.274 88.628L146.048 85.791L139.774 90.032C120.306 103.191 103.187 120.312 90.017 139.797C87.676 143.26 85.927 146.215 86.13 146.363C89.825 149.049 103.441 160.216 106.231 162.848C110.699 167.064 113.495 174.504 112.634 179.887C112.012 183.778 92.605 228.586 88.53 235.539C85.214 241.198 78.01 245.025 70.865 244.925C67.751 244.881 56.457 242.459 43.946 239.151M77.68 231.817C80.48 229.204 102 180.894 102 177.221C102 173.059 100.224 171.142 85.503 159.411C78.077 153.493 72.004 148.392 72.008 148.075C72.029 146.575 89.293 122.21 95.5 114.921C107.603 100.707 127.359 84.331 144.057 74.672L148.614 72.036L159.931 86.09C170.709 99.474 173.596 102 178.114 102C181.661 102 228.315 80.894 231.483 77.856C235.507 73.997 235.324 71.736 229.065 48C221.817 20.51 221.249 19.923 204.833 22.939C157.394 31.655 116.056 53.52 83.456 87.141C51.914 119.671 32.307 157.225 23.394 202.183C21.049 214.012 20.986 215.073 22.461 217.924C23.33 219.605 25.045 221.631 26.271 222.425C29.675 224.63 70.131 234.976 73 234.375C74.375 234.087 76.481 232.936 77.68 231.817" />
    <glyph glyph-name="phone-1"
      unicode="&#x70;&#x68;&#x6F;&#x6E;&#x65;"
      horiz-adv-x="256" d="M43.946 239.151C21.292 233.163 18.796 232.007 14.037 225.304C11.77 222.112 11.51 220.813 11.59 213.115C11.772 195.801 20.267 166.742 32.527 141.5C44.621 116.597 56.612 99.521 75.92 79.708C95.435 59.683 115.037 45.511 140.654 32.907C163.153 21.838 199.641 10.983 214.266 11.009C221.322 11.022 229.152 15.417 231.975 20.95C234.842 26.57 245 66.152 245 71.703C245 77.903 241.699 84.509 237.071 87.572C232.681 90.477 193.007 108.295 184.646 111.116C177.753 113.442 171.68 112.933 166.759 109.616C164.041 107.785 157.292 100.121 148.274 88.628L146.048 85.791L139.774 90.032C120.306 103.191 103.187 120.312 90.017 139.797C87.676 143.26 85.927 146.215 86.13 146.363C89.825 149.049 103.441 160.216 106.231 162.848C110.699 167.064 113.495 174.504 112.634 179.887C112.012 183.778 92.605 228.586 88.53 235.539C85.214 241.198 78.01 245.025 70.865 244.925C67.751 244.881 56.457 242.459 43.946 239.151M77.68 231.817C80.48 229.204 102 180.894 102 177.221C102 173.059 100.224 171.142 85.503 159.411C78.077 153.493 72.004 148.392 72.008 148.075C72.029 146.575 89.293 122.21 95.5 114.921C107.603 100.707 127.359 84.331 144.057 74.672L148.614 72.036L159.931 86.09C170.709 99.474 173.596 102 178.114 102C181.661 102 228.315 80.894 231.483 77.856C235.507 73.997 235.324 71.736 229.065 48C221.817 20.51 221.249 19.923 204.833 22.939C157.394 31.655 116.056 53.52 83.456 87.141C51.914 119.671 32.307 157.225 23.394 202.183C21.049 214.012 20.986 215.073 22.461 217.924C23.33 219.605 25.045 221.631 26.271 222.425C29.675 224.63 70.131 234.976 73 234.375C74.375 234.087 76.481 232.936 77.68 231.817" />
    <glyph glyph-name="phone-disabled"
      unicode="&#xEA2C;"
      horiz-adv-x="256" d="M43.946 239.151C21.292 233.163 18.796 232.007 14.037 225.304C11.77 222.112 11.51 220.813 11.59 213.115C11.648 207.625 12.672 200.147 14.412 192.5C23.171 154.024 43.512 114.578 68.945 86.75L73.872 81.36L43.954 51.454L14.035 21.548L17.741 17.753L21.446 13.959L51.508 44.008L81.57 74.058L84.535 70.957C89.281 65.993 106.685 52.6 117 45.974C139.138 31.752 169.99 19.224 196.766 13.584C213.189 10.124 218.074 10.201 224.736 14.022C228.316 16.075 230.605 18.266 231.975 20.95C234.842 26.57 245 66.152 245 71.703C245 77.903 241.699 84.509 237.071 87.572C232.681 90.477 193.007 108.295 184.646 111.116C177.753 113.442 171.68 112.933 166.759 109.616C164.036 107.781 157.296 100.126 148.225 88.566L145.951 85.667L138.579 90.814L131.208 95.961L128.783 92.73C127.449 90.954 126.058 88.99 125.692 88.366C125.036 87.25 134.488 80.203 144.069 74.664L148.637 72.022L159.867 86.054C170.543 99.394 173.525 102 178.114 102C181.661 102 228.315 80.894 231.483 77.856C235.507 73.997 235.324 71.736 229.065 48C221.817 20.51 221.249 19.923 204.833 22.939C166.486 29.984 132.213 45.591 102.516 69.529C97.557 73.526 92.501 77.87 91.28 79.181L89.06 81.565L165.51 158.01L241.961 234.456L238.256 238.25L234.551 242.045L171.824 179.324C109.13 116.636 109.096 116.604 106.997 118.503C102.102 122.933 85.109 145.62 86.13 146.363C89.87 149.081 103.456 160.231 106.293 162.909C110.676 167.047 113.57 175.15 112.569 180.484C111.867 184.228 92.188 229.297 88.53 235.539C85.214 241.198 78.01 245.025 70.865 244.925C67.751 244.881 56.457 242.459 43.946 239.151M77.68 231.817C80.384 229.294 102 180.956 102 177.433C102 173.171 100.467 171.453 87.226 160.872C80.227 155.279 73.864 150.117 73.086 149.402C71.885 148.297 72.974 146.166 80.288 135.3C85.028 128.26 91.695 119.427 95.104 115.67L101.303 108.84L91.449 98.949C79.933 87.389 82.18 87.023 69.693 102.5C45.935 131.949 30.901 164.317 23.394 202.183C21.049 214.012 20.986 215.073 22.461 217.924C23.33 219.605 25.045 221.631 26.271 222.425C29.675 224.63 70.131 234.976 73 234.375C74.375 234.087 76.481 232.936 77.68 231.817" />
    <glyph glyph-name="phone-disabled-1"
      unicode="&#x70;&#x68;&#x6F;&#x6E;&#x65;&#x5F;&#x64;&#x69;&#x73;&#x61;&#x62;&#x6C;&#x65;&#x64;"
      horiz-adv-x="256" d="M43.946 239.151C21.292 233.163 18.796 232.007 14.037 225.304C11.77 222.112 11.51 220.813 11.59 213.115C11.648 207.625 12.672 200.147 14.412 192.5C23.171 154.024 43.512 114.578 68.945 86.75L73.872 81.36L43.954 51.454L14.035 21.548L17.741 17.753L21.446 13.959L51.508 44.008L81.57 74.058L84.535 70.957C89.281 65.993 106.685 52.6 117 45.974C139.138 31.752 169.99 19.224 196.766 13.584C213.189 10.124 218.074 10.201 224.736 14.022C228.316 16.075 230.605 18.266 231.975 20.95C234.842 26.57 245 66.152 245 71.703C245 77.903 241.699 84.509 237.071 87.572C232.681 90.477 193.007 108.295 184.646 111.116C177.753 113.442 171.68 112.933 166.759 109.616C164.036 107.781 157.296 100.126 148.225 88.566L145.951 85.667L138.579 90.814L131.208 95.961L128.783 92.73C127.449 90.954 126.058 88.99 125.692 88.366C125.036 87.25 134.488 80.203 144.069 74.664L148.637 72.022L159.867 86.054C170.543 99.394 173.525 102 178.114 102C181.661 102 228.315 80.894 231.483 77.856C235.507 73.997 235.324 71.736 229.065 48C221.817 20.51 221.249 19.923 204.833 22.939C166.486 29.984 132.213 45.591 102.516 69.529C97.557 73.526 92.501 77.87 91.28 79.181L89.06 81.565L165.51 158.01L241.961 234.456L238.256 238.25L234.551 242.045L171.824 179.324C109.13 116.636 109.096 116.604 106.997 118.503C102.102 122.933 85.109 145.62 86.13 146.363C89.87 149.081 103.456 160.231 106.293 162.909C110.676 167.047 113.57 175.15 112.569 180.484C111.867 184.228 92.188 229.297 88.53 235.539C85.214 241.198 78.01 245.025 70.865 244.925C67.751 244.881 56.457 242.459 43.946 239.151M77.68 231.817C80.384 229.294 102 180.956 102 177.433C102 173.171 100.467 171.453 87.226 160.872C80.227 155.279 73.864 150.117 73.086 149.402C71.885 148.297 72.974 146.166 80.288 135.3C85.028 128.26 91.695 119.427 95.104 115.67L101.303 108.84L91.449 98.949C79.933 87.389 82.18 87.023 69.693 102.5C45.935 131.949 30.901 164.317 23.394 202.183C21.049 214.012 20.986 215.073 22.461 217.924C23.33 219.605 25.045 221.631 26.271 222.425C29.675 224.63 70.131 234.976 73 234.375C74.375 234.087 76.481 232.936 77.68 231.817" />
    <glyph glyph-name="attach"
      unicode="&#xEA2D;"
      horiz-adv-x="256" d="M145.209 239.444C131.63 235.789 131.344 235.553 86.141 190.613C39.623 144.366 30.552 134.63 25.537 125.571C12.845 102.641 13.981 70.652 28.245 49.325C35.055 39.144 47.219 28.151 57.318 23.052C68.082 17.617 74.214 16.051 87.573 15.323C108.322 14.193 123.933 19.585 140.526 33.612C143.29 35.948 167.102 59.747 193.442 86.498L241.331 135.136L237.598 138.818L233.866 142.5L182.183 90.388C126.857 34.602 125.645 33.552 110.814 28.574C104.397 26.419 101.325 26 91.968 26C73.34 26 60.97 30.698 48.015 42.692C39.318 50.744 33.708 59.233 30.298 69.5C26.658 80.459 26.407 97.907 29.736 108.5C34.231 122.803 36.315 125.293 84 173.318C108.475 197.968 130.791 219.905 133.592 222.067C140.671 227.533 148.405 230.003 158.407 229.989C171.161 229.972 177.863 227.422 187.223 219.023C191.362 215.31 193.992 211.773 196.723 206.246C200.371 198.865 200.5 198.243 200.5 188.052C200.5 178.028 200.325 177.14 197 170.312C193.805 163.75 190.045 159.608 153.815 122.743C131.988 100.533 112.264 81.069 109.984 79.489C99.685 72.352 84.163 76.828 78.88 88.459C76.625 93.423 76.484 100.828 78.55 105.773C79.585 108.251 91.87 121.282 115.558 145.03L151.016 180.578L147.221 184.284L143.426 187.989L107.772 152.245C67.047 111.417 66.559 110.762 66.585 97C66.608 84.25 72.763 74.703 84.771 68.792C90.423 66.01 92.545 65.502 98.479 65.513C111.974 65.538 112.015 65.57 159.6 113.285C200.036 153.83 201.861 155.822 205.744 163.652C212.504 177.285 213.547 190.632 208.991 205.227C204.062 221.019 188.982 234.994 171.992 239.515C165.106 241.347 152.152 241.313 145.209 239.444" />
    <glyph glyph-name="attach-1"
      unicode="&#x61;&#x74;&#x74;&#x61;&#x63;&#x68;"
      horiz-adv-x="256" d="M145.209 239.444C131.63 235.789 131.344 235.553 86.141 190.613C39.623 144.366 30.552 134.63 25.537 125.571C12.845 102.641 13.981 70.652 28.245 49.325C35.055 39.144 47.219 28.151 57.318 23.052C68.082 17.617 74.214 16.051 87.573 15.323C108.322 14.193 123.933 19.585 140.526 33.612C143.29 35.948 167.102 59.747 193.442 86.498L241.331 135.136L237.598 138.818L233.866 142.5L182.183 90.388C126.857 34.602 125.645 33.552 110.814 28.574C104.397 26.419 101.325 26 91.968 26C73.34 26 60.97 30.698 48.015 42.692C39.318 50.744 33.708 59.233 30.298 69.5C26.658 80.459 26.407 97.907 29.736 108.5C34.231 122.803 36.315 125.293 84 173.318C108.475 197.968 130.791 219.905 133.592 222.067C140.671 227.533 148.405 230.003 158.407 229.989C171.161 229.972 177.863 227.422 187.223 219.023C191.362 215.31 193.992 211.773 196.723 206.246C200.371 198.865 200.5 198.243 200.5 188.052C200.5 178.028 200.325 177.14 197 170.312C193.805 163.75 190.045 159.608 153.815 122.743C131.988 100.533 112.264 81.069 109.984 79.489C99.685 72.352 84.163 76.828 78.88 88.459C76.625 93.423 76.484 100.828 78.55 105.773C79.585 108.251 91.87 121.282 115.558 145.03L151.016 180.578L147.221 184.284L143.426 187.989L107.772 152.245C67.047 111.417 66.559 110.762 66.585 97C66.608 84.25 72.763 74.703 84.771 68.792C90.423 66.01 92.545 65.502 98.479 65.513C111.974 65.538 112.015 65.57 159.6 113.285C200.036 153.83 201.861 155.822 205.744 163.652C212.504 177.285 213.547 190.632 208.991 205.227C204.062 221.019 188.982 234.994 171.992 239.515C165.106 241.347 152.152 241.313 145.209 239.444" />
    <glyph glyph-name="message"
      unicode="&#xEA2E;"
      horiz-adv-x="256" d="M24.994 239.075C17.434 236.747 11.009 231.171 7.624 224C5.53 219.563 5.5 218.629 5.5 157.5L5.5 95.5L8.303 89.792C11.118 84.06 16.13 79.17 21.606 76.815C23.332 76.073 31.359 75.355 41.5 75.035L58.5 74.5L59 42.681L59.5 10.862L100.227 42.931L140.954 75L184.799 75C234.199 75 234.737 75.067 242.061 82.175C244.335 84.382 247.164 88.283 248.348 90.844C250.478 95.451 250.5 96.146 250.5 157.5C250.5 218.629 250.47 219.563 248.376 224C245.814 229.427 241.035 234.396 235.553 237.33L231.5 239.5L129.5 239.673C73.4 239.769 26.372 239.5 24.994 239.075M232.01 226.75C233.828 225.512 236.257 223.23 237.408 221.677C239.469 218.896 239.504 217.959 239.773 158.376C240.079 90.379 240.371 93.26 232.668 88.161L228.648 85.5L182.524 85.222L136.4 84.943L103.45 59.008C85.328 44.744 70.162 33.056 69.75 33.036C69.338 33.016 69 44.7 69 59L69 85L49.25 85.022C26.962 85.047 23.352 85.893 18.901 92.133L16.5 95.5L16.227 155.887C15.962 214.67 16.008 216.385 17.969 220.436C19.209 222.998 21.428 225.435 23.742 226.776L27.5 228.954L128.102 228.977L228.704 229L232.01 226.75" />
    <glyph glyph-name="message-1"
      unicode="&#x6D;&#x65;&#x73;&#x73;&#x61;&#x67;&#x65;"
      horiz-adv-x="256" d="M24.994 239.075C17.434 236.747 11.009 231.171 7.624 224C5.53 219.563 5.5 218.629 5.5 157.5L5.5 95.5L8.303 89.792C11.118 84.06 16.13 79.17 21.606 76.815C23.332 76.073 31.359 75.355 41.5 75.035L58.5 74.5L59 42.681L59.5 10.862L100.227 42.931L140.954 75L184.799 75C234.199 75 234.737 75.067 242.061 82.175C244.335 84.382 247.164 88.283 248.348 90.844C250.478 95.451 250.5 96.146 250.5 157.5C250.5 218.629 250.47 219.563 248.376 224C245.814 229.427 241.035 234.396 235.553 237.33L231.5 239.5L129.5 239.673C73.4 239.769 26.372 239.5 24.994 239.075M232.01 226.75C233.828 225.512 236.257 223.23 237.408 221.677C239.469 218.896 239.504 217.959 239.773 158.376C240.079 90.379 240.371 93.26 232.668 88.161L228.648 85.5L182.524 85.222L136.4 84.943L103.45 59.008C85.328 44.744 70.162 33.056 69.75 33.036C69.338 33.016 69 44.7 69 59L69 85L49.25 85.022C26.962 85.047 23.352 85.893 18.901 92.133L16.5 95.5L16.227 155.887C15.962 214.67 16.008 216.385 17.969 220.436C19.209 222.998 21.428 225.435 23.742 226.776L27.5 228.954L128.102 228.977L228.704 229L232.01 226.75" />
    <glyph glyph-name="heart"
      unicode="&#xEA2F;"
      horiz-adv-x="256" d="M64.5 222.837C61.75 222.32 55.675 220.058 51 217.81C39.577 212.317 28.014 200.976 22.643 190C11.289 166.793 14.926 140.432 32.104 121.423C43.319 109.013 127.257 22 128.014 22C128.414 22 151.005 45.193 178.216 73.541C218.612 115.625 228.452 126.413 231.842 132.338C254.094 171.23 227.549 220.807 182.916 223.715C162.862 225.022 142.235 216.012 130.36 200.758L128.225 198.017L120.25 205.993C114.219 212.024 110.466 214.827 104.858 217.49C92.426 223.394 77.786 225.334 64.5 222.837M90.458 211.469C104.515 207.807 116.835 197.43 123.775 183.404C125.79 179.332 127.677 176.002 127.969 176.005C128.261 176.007 130.422 179.773 132.772 184.374C142.106 202.649 158.704 213 178.676 213C187.742 213 194.927 211.172 203.319 206.729C228.212 193.55 236.754 159.477 221.194 135.428C217.637 129.93 129.672 37.5 127.996 37.5C126.461 37.5 37.54 130.715 34.511 135.5C29.462 143.476 27.792 148.768 27.253 158.5C26.332 175.118 30.647 186.854 41.762 197.968C48.837 205.043 53.886 208.168 63 211.114C69.923 213.352 82.598 213.516 90.458 211.469" />
    <glyph glyph-name="heart-1"
      unicode="&#x68;&#x65;&#x61;&#x72;&#x74;"
      horiz-adv-x="256" d="M64.5 222.837C61.75 222.32 55.675 220.058 51 217.81C39.577 212.317 28.014 200.976 22.643 190C11.289 166.793 14.926 140.432 32.104 121.423C43.319 109.013 127.257 22 128.014 22C128.414 22 151.005 45.193 178.216 73.541C218.612 115.625 228.452 126.413 231.842 132.338C254.094 171.23 227.549 220.807 182.916 223.715C162.862 225.022 142.235 216.012 130.36 200.758L128.225 198.017L120.25 205.993C114.219 212.024 110.466 214.827 104.858 217.49C92.426 223.394 77.786 225.334 64.5 222.837M90.458 211.469C104.515 207.807 116.835 197.43 123.775 183.404C125.79 179.332 127.677 176.002 127.969 176.005C128.261 176.007 130.422 179.773 132.772 184.374C142.106 202.649 158.704 213 178.676 213C187.742 213 194.927 211.172 203.319 206.729C228.212 193.55 236.754 159.477 221.194 135.428C217.637 129.93 129.672 37.5 127.996 37.5C126.461 37.5 37.54 130.715 34.511 135.5C29.462 143.476 27.792 148.768 27.253 158.5C26.332 175.118 30.647 186.854 41.762 197.968C48.837 205.043 53.886 208.168 63 211.114C69.923 213.352 82.598 213.516 90.458 211.469" />
    <glyph glyph-name="heart-filled"
      unicode="&#xEA30;"
      horiz-adv-x="256" d="M178.6666666666667 224A61.589333333333336 61.589333333333336 0 0 1 128 197.1253333333334A61.28533333333334 61.28533333333334 0 0 1 16 162.6666666666667A60.91733333333334 60.91733333333334 0 0 1 33.312 120L124.1066666666667 23.0186666666667A5.333333333333333 5.333333333333333 0 0 1 131.8933333333333 23.0186666666667L222.6133333333333 119.9253333333334A61.30133333333334 61.30133333333334 0 0 1 178.6666666666667 224z" />
    <glyph glyph-name="heart-filled-1"
      unicode="&#x68;&#x65;&#x61;&#x72;&#x74;&#x5F;&#x66;&#x69;&#x6C;&#x6C;&#x65;&#x64;"
      horiz-adv-x="256" d="M178.6666666666667 224A61.589333333333336 61.589333333333336 0 0 1 128 197.1253333333334A61.28533333333334 61.28533333333334 0 0 1 16 162.6666666666667A60.91733333333334 60.91733333333334 0 0 1 33.312 120L124.1066666666667 23.0186666666667A5.333333333333333 5.333333333333333 0 0 1 131.8933333333333 23.0186666666667L222.6133333333333 119.9253333333334A61.30133333333334 61.30133333333334 0 0 1 178.6666666666667 224z" />
    <glyph glyph-name="url"
      unicode="&#xEA31;"
      horiz-adv-x="256" d="M181.105 243.417C170.622 240.599 166.262 237.338 145.812 217.026C127.999 199.332 125.784 196.754 122.548 189.939C118.77 181.983 117.128 173.245 117.817 164.75L118.201 160L122.962 160L127.723 160L128.231 168.924C129.087 183.936 131.53 187.907 153.312 209.692C173.019 229.403 176.97 232.123 188.651 234.025C209.793 237.466 230.915 222.032 233.849 201C235.006 192.707 233.881 184.605 230.57 177.372C228.473 172.791 224.355 168.052 209.728 153.386C188.044 131.642 184.628 129.534 169.25 128.397L160 127.713L160 122.857C160 118.261 160.148 117.992 162.75 117.852C175.042 117.19 186.149 119.586 194.329 124.664C200.543 128.521 232.656 160.6 237.138 167.428C239.278 170.688 241.923 176.248 243.015 179.783C245.371 187.411 245.64 200.007 243.61 207.632C239.031 224.826 223.067 240.293 206.201 243.875C199.05 245.393 187.681 245.186 181.105 243.417M124.205 131.705L77.956 85.448L81.751 81.743L85.546 78.038L131.795 124.295L178.044 170.552L174.249 174.257L170.454 177.962L124.205 131.705M80.5 137.892C76.126 137.315 70.718 135.65 66.084 133.455C59.571 130.369 56.481 127.783 40.701 112.221C21.399 93.183 16.099 86.298 12.985 76.217C10.788 69.102 10.358 56.498 12.061 49.112C14.615 38.03 24.302 24.838 34.793 18.155C50.44 8.186 72.726 8.475 88.572 18.853C91.832 20.988 102.474 30.82 112.221 40.701C128.14 56.842 130.324 59.473 133.707 66.584C137.203 73.932 137.501 75.272 137.847 85.25L138.221 96L133.111 96L128 96L127.976 89.75C127.962 86.312 127.506 81.569 126.961 79.209C124.701 69.41 122.171 65.982 103.018 46.774C88.07 31.782 83.229 27.536 78.744 25.483C62.727 18.15 45.01 21.244 33.117 33.449C24.094 42.709 20.216 54.376 21.989 66.924C23.564 78.067 26.498 82.593 43.201 99.652C51.615 108.246 60.637 116.982 63.248 119.066C69.608 124.141 77.296 126.857 87.528 127.644L96 128.295L96 133.148C96 136.598 95.603 138 94.625 138C93.869 138 91.956 138.184 90.375 138.408C88.794 138.632 84.35 138.4 80.5 137.892" />
    </font>
</defs>
</svg>
